<?xml version="1.0" encoding="UTF-8"?><svg xmlns="http://www.w3.org/2000/svg" width="100%" height="100%"><defs><font id="web" horiz-adv-x="1130"><!--



NOTICE: This font software is the valuable property 
of Webtype LLC, The Font Bureau, Webtype and/or its 
suppliers and its use by you is covered under the terms 
of the Web Font license agreement between you and Webtype 
LLC. You may ONLY use this font software with the licensed 
web site. Except as specifically permitted by the license, 
you may not copy this font software. If you have any 
questions, please contact Webtype.com. 

For more information, please visit http://www.webtype.com/store/license/?id=23

Licensed to: technologyreview.com

Serial number: SH-968
--><font-face font-family="" units-per-em="2048" panose-1="2 0 5 3 8 0 0 9 0 4" ascent="1940" descent="-492" alphabetic="0"/><missing-glyph horiz-adv-x="467"/><glyph unicode=" " horiz-adv-x="467"/><glyph unicode="!" horiz-adv-x="748" d="M709 1313Q709 1281 682 1209T610 1026T503 765T375 428L326 438Q369 670 409 975Q445 1252 455 1288Q470 1348 508 1387T604 1427Q654 1427 681 1396T709 1313ZM401 106Q401 51 364 17T274 -18Q220 -18 184 17T147 106Q147 158 183 195T274 233Q328 233 364 197T401 106Z"/><glyph unicode="&quot;" horiz-adv-x="803" d="M487 1403Q487 1382 471 1343T378 1141L299 967H258Q268 1147 268 1307V1366Q268 1509 377 1509Q429 1509 458 1479T487 1403ZM887 1403Q887 1372 837 1266Q741 1065 698 967H657Q668 1125 668 1307V1366Q668 1509 776 1509Q829 1509 858 1479T887 1403Z"/><glyph unicode="#" horiz-adv-x="1147" d="M1110 1047L1063 854L819 797L768 590L1010 647L963 455L719 397L616 -14H567L668 385L412 326L328 -14H279L360 313L119 256L166 449L408 506L459 713L217 655L266 848L508 905L602 1284H651L559 918L815 977L891 1284H940L866 989L1110 1047ZM766 784L512 725L461 518L715 578L766 784Z"/><glyph unicode="$" horiz-adv-x="1260" d="M1198 1022Q1198 953 1161 900T1071 846Q1031 846 1005 866T979 922Q979 956 991 976T1021 1012T1058 1043T1090 1081Q1088 1115 1050 1145T942 1192L821 709Q957 674 1024 608T1092 436Q1092 261 971 143T647 2L573 -291H528L600 -2H569Q494 -2 451 6L377 -291H332L408 14Q272 44 193 116T113 279Q113 354 158 411T268 469Q312 469 336 446T360 381Q360 349 350 330T325 298T291 272T258 242Q253 223 253 206Q253 165 287 124T420 61L545 567Q426 594 358 670T289 854Q289 1011 407 1122T717 1253L768 1460H813L762 1257H786Q849 1257 911 1247L965 1460H1010L954 1237Q1069 1208 1133 1152T1198 1022ZM899 1200Q843 1210 770 1210H752L637 752L780 719L899 1200ZM705 1206Q584 1189 523 1122T461 948Q461 886 493 835T594 762L705 1206ZM924 324Q924 477 774 520L659 53Q784 73 854 143T924 324ZM731 528L588 559L463 55Q503 47 575 47H612L731 528Z"/><glyph unicode="%" horiz-adv-x="1679" d="M1577 371Q1577 266 1519 174T1364 28T1167 -27Q1050 -27 973 44T895 225Q895 324 952 418T1104 569T1300 627Q1423 627 1500 556T1577 371ZM1569 1376L205 -201L154 -164L1513 1413L1569 1376ZM844 1012Q844 907 786 815T631 669T434 614Q317 614 240 685T162 866Q162 966 218 1060T371 1211T567 1268Q690 1268 767 1197T844 1012ZM1421 416Q1421 578 1300 578Q1237 578 1180 521T1087 367T1051 182Q1051 25 1174 25Q1235 25 1293 80T1386 225T1421 416ZM688 1057Q688 1219 567 1219Q504 1219 446 1161T353 1008T317 823Q317 666 440 666Q502 666 561 721T654 868T688 1057Z"/><glyph unicode="&amp;" horiz-adv-x="1741" d="M1735 1178Q1735 1059 1646 992T1405 924Q1510 879 1552 803T1595 598Q1595 476 1532 354T1363 146T1107 13T776 -35Q609 -35 466 27T243 197T162 430Q162 499 184 550T247 642T379 731Q302 782 270 843T238 985Q238 1051 279 1116T390 1221T541 1262Q674 1262 766 1195T887 1010L854 993Q793 1087 741 1120T616 1153Q514 1153 451 1083T387 895Q387 796 436 756Q478 770 517 782T600 795Q660 795 694 770T729 707Q729 676 707 653T639 629Q604 629 574 636T515 655T420 707Q362 681 333 635T303 528Q303 419 385 326T614 179T946 125Q1113 125 1244 188T1448 364T1522 608Q1522 761 1443 846T1225 932Q1132 932 1070 882T1008 752Q1008 666 1049 620T1165 573Q1214 573 1260 604L1218 621Q1141 650 1141 715Q1141 759 1167 785T1235 811Q1298 811 1332 780T1366 690Q1366 623 1316 574T1190 524Q1124 524 1064 556T969 646T934 774Q934 863 979 923T1101 1015T1276 1047L1388 1042L1493 1036Q1564 1036 1615 1082T1667 1192Q1667 1346 1524 1346Q1458 1346 1458 1303Q1464 1296 1476 1291T1502 1277T1526 1255T1536 1219Q1536 1171 1510 1151T1448 1130Q1397 1130 1366 1162T1335 1249Q1335 1305 1387 1345T1518 1386Q1611 1386 1673 1329T1735 1178Z"/><glyph unicode="'" horiz-adv-x="401" d="M487 1403Q487 1382 471 1343T378 1141L299 967H258Q268 1147 268 1307V1366Q268 1509 377 1509Q429 1509 458 1479T487 1403Z"/><glyph unicode="(" horiz-adv-x="748" d="M852 1456Q518 1221 358 961T197 395Q197 200 264 43T485 -260L408 -328Q72 -29 72 379Q72 1051 795 1532L852 1456Z"/><glyph unicode=")" horiz-adv-x="748" d="M702 825Q702 154 -20 -328L-78 -252Q255 -17 416 243T578 809Q578 1003 509 1163T289 1464L367 1532Q541 1375 621 1200T702 825Z"/><glyph unicode="*" horiz-adv-x="743" d="M823 1192Q823 1164 806 1152T748 1139Q649 1139 545 1120Q597 1079 638 1054T707 1013T749 984T764 954Q764 929 745 910T705 891Q688 891 675 905T644 945T600 1009T532 1096Q520 1019 520 897L518 864Q513 846 500 834T467 821Q439 821 424 836T408 874Q408 897 439 954Q482 1031 508 1102Q437 1078 354 1034Q287 999 272 999Q254 999 240 1016T225 1061Q225 1090 243 1100T293 1110Q406 1110 506 1128Q452 1171 411 1196T341 1237T298 1265T283 1294Q283 1316 300 1336T344 1356Q361 1356 375 1340T408 1297T452 1232T518 1153Q524 1206 528 1348Q529 1427 582 1427Q608 1427 625 1414T643 1374Q643 1355 609 1294Q566 1216 543 1145Q609 1171 695 1218Q755 1251 774 1251Q793 1251 808 1233T823 1192Z"/><glyph unicode="+" horiz-adv-x="1188" d="M1124 485H680V39H582V485H137V580H582V1026H680V580H1124V485Z"/><glyph unicode="," horiz-adv-x="496" d="M340 92Q340 -31 251 -144T6 -332L-8 -287Q99 -228 161 -152T233 4H186Q57 4 57 111Q57 166 101 206T201 246Q340 246 340 92Z"/><glyph unicode="-" horiz-adv-x="717" d="M655 571L614 422H59L100 571H655Z"/><glyph unicode="." horiz-adv-x="496" d="M336 113Q336 58 298 20T203 -18Q147 -18 109 20T70 113Q70 168 109 207T203 246Q258 246 297 207T336 113Z"/><glyph unicode="/" horiz-adv-x="860" d="M1055 1481L-158 -446L-242 -397L969 1530L1055 1481Z"/><glyph unicode="0" horiz-adv-x="1257" d="M1214 795Q1214 583 1121 391T871 85T543 -29Q341 -29 223 97T104 438Q104 649 197 842T448 1153T778 1270Q978 1270 1096 1144T1214 795ZM1012 901Q1012 1050 954 1135T795 1221Q677 1221 564 1096T379 759T307 332Q307 192 363 106T520 20Q636 20 748 142T936 478T1012 901Z"/><glyph unicode="1" horiz-adv-x="874" d="M801 1268Q782 1227 748 1136T690 961L473 172Q467 148 467 131Q467 101 491 85T568 57T651 43L641 0H20L31 43L66 46Q177 53 216 78T272 164L528 1087Q501 1079 453 1079Q343 1079 238 1200L264 1229Q358 1182 465 1182Q602 1182 774 1268H801Z"/><glyph unicode="2" horiz-adv-x="1182" d="M1133 989Q1133 858 1054 739T810 500T328 217L260 166H745Q824 166 890 218T1018 362L1053 350L864 0H14L25 51Q250 202 372 296T610 492Q930 770 930 1018Q930 1113 876 1167T727 1221Q637 1221 550 1170T403 1030T344 866Q344 731 463 731Q503 731 541 749T645 827L664 803Q527 653 373 653Q285 653 232 699T178 831Q178 933 266 1040T488 1208T758 1270Q928 1270 1030 1194T1133 989Z"/><glyph unicode="3" horiz-adv-x="1157" d="M1155 1014Q1155 896 1046 808T750 690L707 664H741Q874 664 956 602T1038 438Q1038 298 956 185T729 10T412 -53Q232 -53 118 18T4 209Q4 297 56 358T188 420Q236 420 261 397T287 340Q287 298 271 274T220 236Q185 223 169 200T152 137Q152 77 214 40T371 2Q482 2 590 70T764 249T831 479Q831 544 791 581T684 618Q616 618 520 550L463 510L432 563Q659 678 760 750T909 895T956 1053Q956 1141 907 1181T774 1221Q704 1221 626 1184T498 1085T449 956Q449 913 472 888T532 862Q602 862 668 918L688 891Q621 833 558 802T451 770Q373 770 327 809T281 918Q281 1000 363 1084T571 1219T819 1270Q971 1270 1063 1198T1155 1014Z"/><glyph unicode="4" horiz-adv-x="1077" d="M1036 217Q989 146 909 95T733 23L598 -362H420L549 14Q508 21 465 35T375 62T276 86T166 96L104 92Q69 61 20 32T-49 2Q-87 2 -111 18T-135 66Q-135 97 -104 116T-25 135H30L92 133Q351 363 616 1270H844Q710 859 526 564T137 127Q228 139 279 139Q375 139 516 113L580 104L760 604H944L762 109Q833 118 895 146T1012 240L1036 217Z"/><glyph unicode="5" horiz-adv-x="1071" d="M1186 1270Q1126 1188 1034 1129T823 1040T590 1010L467 1014L326 702Q429 764 582 764Q747 764 851 675T956 444Q956 316 881 206T672 34T373 -29Q222 -29 119 38T16 207Q16 276 61 318T164 360Q252 360 252 287Q252 251 227 211Q194 160 186 137Q186 86 237 51T365 16Q468 16 561 85T709 273T764 522Q764 610 705 661T549 713Q460 713 381 674T266 569L215 580L520 1264H573Q601 1227 672 1206T834 1184Q924 1184 993 1205T1165 1292L1186 1270Z"/><glyph unicode="6" horiz-adv-x="1157" d="M1262 1235Q1262 1163 1232 1125T1149 1087Q1051 1087 1047 1233Q1042 1314 1011 1343T915 1372Q777 1372 627 1192T375 731L381 725Q462 799 543 833T729 868Q870 868 959 772T1049 522Q1049 379 973 245T776 41T504 -29Q313 -29 208 84T102 403Q102 640 235 883T576 1280T989 1434Q1074 1434 1135 1409T1229 1339T1262 1235ZM836 569Q836 682 780 740T627 799Q537 799 455 732T325 548T276 297Q276 164 330 94T479 23Q569 23 649 95T782 301T836 569Z"/><glyph unicode="7" horiz-adv-x="1036" d="M1212 1219L1208 1200Q1066 1043 986 944T837 741T675 477T531 194T442 -70Q396 -246 285 -246Q235 -246 212 -219T188 -147Q188 -90 244 10T461 336T733 703T1008 1040H481Q392 1040 323 989T166 797L127 807L389 1333H426L412 1219H1212Z"/><glyph unicode="8" horiz-adv-x="1143" d="M1110 1012Q1110 907 1026 812T809 678V670Q1020 554 1020 397Q1020 277 954 180T762 25T498 -33Q315 -33 196 55T76 274Q76 393 182 498T434 637V645Q337 708 301 766T264 897Q264 995 329 1086T505 1230T739 1284Q893 1284 1001 1207T1110 1012ZM979 1028Q979 1122 911 1176T735 1231Q660 1231 596 1197T495 1103T457 977Q457 885 525 822T758 700Q860 738 919 827T979 1028ZM825 309Q825 402 748 475T494 614Q375 568 301 470T227 252Q227 151 302 86T502 20Q587 20 663 58T782 163T825 309Z"/><glyph unicode="9" horiz-adv-x="1157" d="M1112 848Q1112 602 984 348T654 -58T231 -209Q90 -209 11 -153T-68 0Q-68 59 -39 94T41 129Q97 129 121 96T150 -20Q152 -95 186 -123T289 -152Q387 -152 493 -66T695 178T854 526L846 532Q768 459 723 432T625 389T508 373Q360 373 266 468T172 719Q172 862 247 990T450 1194T723 1270Q902 1270 1007 1160T1112 848ZM942 930Q942 1066 886 1144T729 1223Q641 1223 565 1158T438 970T387 713Q387 579 437 514T592 449Q681 449 763 513T893 688T942 930Z"/><glyph unicode=":" horiz-adv-x="655" d="M555 797Q555 742 517 704T422 666Q366 666 328 704T289 797Q289 852 328 891T422 930Q477 930 516 891T555 797ZM375 113Q375 58 337 20T242 -18Q186 -18 148 20T109 113Q109 168 148 207T242 246Q297 246 336 207T375 113Z"/><glyph unicode=";" horiz-adv-x="655" d="M555 797Q555 742 517 704T422 666Q366 666 328 704T289 797Q289 852 328 891T422 930Q477 930 516 891T555 797ZM385 92Q385 -31 296 -144T51 -332L37 -287Q144 -227 207 -150T279 4H231Q102 4 102 111Q102 166 146 206T246 246Q385 246 385 92Z"/><glyph unicode="&lt;" horiz-adv-x="1188" d="M1069 72L164 492V573L1069 993V887L293 532L1069 178V72Z"/><glyph unicode="=" horiz-adv-x="1188" d="M1083 649H178V743H1083V649ZM1083 322H178V416H1083V322Z"/><glyph unicode="&gt;" horiz-adv-x="1188" d="M1092 492L186 72V178L963 532L186 887V993L1092 573V492Z"/><glyph unicode="?" horiz-adv-x="877" d="M967 1110Q967 874 698 758Q531 684 476 646T390 564T358 463Q358 365 455 365Q502 365 542 414T594 532L639 518Q625 438 568 383T449 328Q358 328 306 382T254 530Q254 631 322 706T559 862Q696 928 752 995T809 1167Q809 1224 779 1273T694 1352T567 1382Q475 1382 411 1327T346 1194Q346 1129 385 1086T487 1042Q517 1042 535 1051V1063H531Q499 1063 473 1086T446 1141Q446 1181 472 1208T539 1235Q588 1235 617 1209T647 1135Q647 1076 605 1039T492 1001Q414 1001 362 1056T309 1192Q309 1294 394 1363T610 1432Q768 1432 867 1342T967 1110ZM444 106Q444 51 407 17T317 -18Q263 -18 227 17T190 106Q190 158 226 195T317 233Q371 233 407 197T444 106Z"/><glyph unicode="@" horiz-adv-x="2181" d="M2007 233Q1946 31 1812 -122T1490 -357T1087 -440Q839 -440 636 -337T327 -53T221 358Q221 616 361 848T736 1212T1247 1343Q1455 1343 1605 1262T1836 1032T1917 692Q1917 535 1841 389T1639 156T1378 68Q1295 68 1243 109T1186 231L1180 233Q1135 164 1072 118T948 72Q837 72 780 140T723 334Q723 413 766 516T876 700T1028 827T1202 872Q1255 872 1295 842T1346 750H1352L1395 860H1538L1337 322Q1315 258 1315 215Q1315 121 1399 121Q1516 121 1625 201T1796 415T1858 705Q1858 876 1785 1006T1571 1207T1241 1278Q1022 1278 825 1156T520 828T412 369Q412 150 495 -15T733 -269T1087 -358Q1423 -358 1645 -205T1970 246L2007 233ZM1327 680Q1316 757 1286 794T1196 831Q1123 831 1054 753T937 543T889 301Q889 216 907 175T971 133Q1030 133 1083 174T1194 311L1327 680Z"/><glyph unicode="A" horiz-adv-x="1300" d="M1241 43L1229 0H631L643 43Q781 52 825 80T870 176V553H408Q268 358 223 294T148 186T127 139Q127 102 193 74T330 43L317 0H-246L-233 43Q-193 47 -132 67T-21 129T90 244Q467 714 1012 1421H1069V182Q1069 124 1081 101T1133 63T1241 43ZM870 614V1139L461 614H870Z"/><glyph unicode="B" horiz-adv-x="1284" d="M1294 1139Q1294 1009 1194 915T870 762V743Q1037 713 1121 639T1206 453Q1206 320 1123 217T887 57T539 0H-68L-57 43Q67 53 96 63Q162 86 184 164L477 1217Q485 1254 485 1264Q485 1284 476 1296T444 1319Q404 1334 364 1343T307 1354L319 1399H934Q1103 1399 1198 1332T1294 1139ZM1077 1120Q1077 1223 1023 1283T858 1343L715 1339L555 768H631Q757 768 859 814T1019 943T1077 1120ZM989 449Q989 571 902 642T674 713L539 709L393 182L391 157Q391 108 425 83T551 57Q677 57 777 110T933 255T989 449Z"/><glyph unicode="C" horiz-adv-x="1286" d="M1389 1419L1290 913H1241Q1224 1086 1183 1179T1067 1319T881 1366Q744 1366 613 1253T404 948T326 541Q326 311 426 183T709 55Q839 55 946 127T1178 383L1225 354Q1125 204 1041 128T855 11T627 -31Q379 -31 239 113T98 504Q98 740 207 951T510 1293T915 1425Q1009 1425 1077 1402T1221 1315L1305 1419H1389Z"/><glyph unicode="D" horiz-adv-x="1524" d="M1505 856Q1505 614 1385 420T1039 113T539 0H-68L-57 43Q67 53 96 63Q162 86 184 164L477 1217Q485 1254 485 1264Q485 1284 476 1296T444 1319Q404 1334 364 1343T307 1354L319 1399H926Q1099 1399 1229 1336T1432 1151T1505 856ZM1286 838Q1286 1085 1176 1213T852 1341Q783 1341 715 1337L401 217Q394 192 394 170Q394 129 426 94T563 59Q757 59 923 160T1188 441T1286 838Z"/><glyph unicode="E" horiz-adv-x="1305" d="M1380 1399L1292 1079H1241V1096Q1241 1157 1224 1209T1173 1295T1090 1336T938 1343H717L551 752H711Q791 752 850 780T949 871T1018 1004H1071L911 434H862Q868 472 868 526Q868 564 864 594T844 644T810 674T762 690T696 696H537L410 244Q389 179 389 145Q389 94 429 76T596 57Q771 57 835 68T932 104Q997 158 1071 250T1171 393H1223L1090 0H-86L-72 43Q-32 43 40 54T143 92T188 170L477 1214Q485 1251 485 1264Q485 1293 463 1308T383 1338T291 1354L305 1399H1380Z"/><glyph unicode="F" horiz-adv-x="1253" d="M1432 1399L1343 1067H1292Q1292 1144 1274 1203T1222 1295T1132 1336T973 1343H717L549 748H733Q783 748 829 760T917 799T994 885T1051 999H1106L944 424H889Q897 465 897 537Q895 604 881 627Q861 656 819 673T717 690H535L393 184Q385 162 385 135Q385 107 405 92T482 63T580 45L565 0H-86L-72 43Q-32 43 40 54T143 92T188 170L477 1214Q485 1251 485 1264Q485 1293 463 1308T383 1338T291 1354L305 1399H1432Z"/><glyph unicode="G" horiz-adv-x="1456" d="M1493 618L1481 571L1448 567Q1362 555 1327 539T1274 496T1247 436L1120 -39L1094 -47L1016 78L909 34Q823 -3 760 -17T627 -31Q466 -31 347 33T163 220T98 516Q98 752 218 966T536 1303T956 1425Q1052 1425 1129 1400T1276 1315L1368 1419H1448L1335 928H1288Q1273 1165 1183 1265T915 1366Q768 1366 628 1252T408 948T328 537Q328 297 419 166T680 35Q773 35 836 64T941 149T1016 318T1049 467Q1049 505 1029 524T944 555T813 571L825 618H1493Z"/><glyph unicode="H" horiz-adv-x="1657" d="M1817 1399L1802 1354Q1755 1351 1688 1338T1598 1300T1561 1227L1260 148L1257 129Q1257 114 1262 105T1289 81T1357 56T1440 43L1427 0H801L813 43Q944 52 973 63Q1041 87 1061 164L1210 696H537L389 172Q383 145 383 131Q383 101 407 85T484 57T567 43L557 0H-68L-57 43Q67 53 96 63Q162 86 184 164L477 1217Q485 1254 485 1264Q485 1284 476 1296T444 1319Q404 1334 364 1343T307 1354L319 1399H946L934 1354Q846 1348 774 1329Q707 1309 684 1227L555 762H1227L1354 1217Q1362 1254 1362 1266Q1362 1286 1352 1297T1321 1319Q1228 1350 1176 1354L1192 1399H1817Z"/><glyph unicode="I" horiz-adv-x="795" d="M952 1399L940 1354Q852 1348 780 1329Q713 1309 690 1227L395 172Q389 145 389 131Q389 101 412 85T488 57T573 43L563 0H-61L-51 43Q65 52 97 61T150 90T185 148T489 1243L492 1264Q492 1284 482 1296T451 1319Q413 1333 372 1343T313 1354L326 1399H952Z"/><glyph unicode="J" horiz-adv-x="1118" d="M1239 1305Q1239 1259 1216 1230T1151 1180T985 1133Q948 1043 923 960T870 731L1135 737L1114 666L858 668L804 444Q773 314 724 151T588 -125T390 -295T156 -354Q47 -354 -16 -302T-80 -170Q-80 -132 -46 -96T35 -59Q87 -59 120 -83T154 -164Q154 -194 111 -256Q111 -276 128 -293T162 -311Q257 -311 319 -269T430 -136T521 108T651 659H383L393 715L664 721Q684 781 706 828T760 923T909 1116Q857 1104 789 1094T690 1083Q636 1083 588 1110T489 1196Q432 1258 385 1285T287 1313Q237 1313 208 1291T178 1235Q178 1224 189 1198T209 1155Q256 1153 285 1125T315 1053Q315 1020 288 992T219 963Q164 963 135 1007T106 1130Q106 1201 151 1275T269 1393T418 1438Q493 1438 547 1407T654 1306Q707 1232 761 1197T887 1155H942L1004 1230Q1065 1307 1101 1337T1163 1368Q1239 1368 1239 1305Z"/><glyph unicode="K" horiz-adv-x="1511" d="M1677 1399L1665 1354L1617 1351Q1549 1347 1477 1320T1348 1247L1189 1115Q1029 981 938 911T739 766Q933 518 1137 209Q1175 150 1224 113T1320 63T1425 45L1415 0H717L727 45Q846 54 894 72T942 129Q942 177 818 360T571 686H535L389 172Q383 148 383 131Q383 101 407 85T484 57T567 43L557 0H-68L-57 43Q67 53 96 63Q162 86 184 164L477 1217Q485 1254 485 1264Q485 1284 476 1296T444 1319Q404 1334 364 1343T307 1354L319 1399H946L934 1354Q846 1348 774 1329Q707 1309 684 1227L545 725H571Q873 926 1052 1080T1233 1291Q1233 1343 1085 1354L1098 1399H1677Z"/><glyph unicode="L" horiz-adv-x="1288" d="M1223 397L1085 0H-86L-72 43Q-32 43 40 54T143 92T188 170L477 1214Q485 1251 485 1264Q485 1293 463 1308T383 1338T291 1354L305 1399H946L934 1354Q846 1348 774 1329Q707 1309 684 1227L410 244Q391 172 391 139Q391 93 432 75T604 57Q722 57 809 70T924 106Q976 144 1053 233T1174 397H1223Z"/><glyph unicode="M" horiz-adv-x="1907" d="M2060 1399L2048 1354Q1960 1348 1888 1329Q1817 1308 1798 1227L1526 172Q1520 154 1520 131Q1520 101 1543 85T1618 58T1712 43L1702 0H1079L1090 43Q1204 52 1235 63Q1304 87 1323 164L1591 1225L776 23H739Q731 189 709 307L541 1202L324 389Q312 345 302 287T291 201Q291 149 307 122T391 71T512 43L500 0H-113L-100 43Q-57 46 10 64T104 98Q146 124 179 190T246 379L449 1128Q462 1176 462 1210Q462 1279 408 1314T262 1354L274 1399H698L901 315L1505 1223Q1575 1326 1599 1399H2060Z"/><glyph unicode="N" horiz-adv-x="1509" d="M1733 1399L1720 1356Q1680 1353 1613 1337T1518 1305Q1477 1281 1444 1219T1376 1030L1098 -14H1030L526 1161L324 389Q316 364 304 296T291 201Q291 149 307 122T391 71T512 43L500 0H-113L-100 43Q-57 46 10 64T104 98Q188 150 248 379L440 1102Q449 1138 449 1171Q449 1345 203 1354L217 1399H639L1112 297L1300 1018Q1333 1150 1333 1208Q1333 1247 1323 1270T1277 1310T1192 1340T1112 1356L1124 1399H1733Z"/><glyph unicode="O" horiz-adv-x="1475" d="M1456 881Q1456 633 1352 425T1056 92T637 -33Q476 -33 361 41T176 244T106 526Q106 762 216 972T515 1306T920 1430Q1165 1430 1310 1266T1456 881ZM1237 924Q1237 1143 1152 1255T905 1368Q753 1368 625 1259T411 931T326 471Q326 259 412 144T659 29Q819 29 947 142T1156 476T1237 924Z"/><glyph unicode="P" horiz-adv-x="1235" d="M1290 1098Q1290 890 1108 766T616 641H520L389 170Q383 148 383 131Q383 101 407 85T484 57T567 43L557 0H-68L-57 43Q67 53 96 63Q162 86 184 164L477 1217Q485 1254 485 1264Q485 1284 476 1296T444 1319Q404 1334 364 1343T307 1354L319 1399H887Q1077 1399 1183 1320T1290 1098ZM1073 1079Q1073 1341 807 1341H715L539 702H637Q841 702 957 803T1073 1079Z"/><glyph unicode="Q" horiz-adv-x="1364" d="M1632 -270Q1632 -314 1582 -367T1452 -455T1282 -489Q1109 -489 982 -424T740 -204Q668 -107 620 -51T526 39Q352 -31 215 -31Q107 -31 37 4T-33 100Q-33 153 43 195T209 238Q299 238 390 213T596 131Q684 156 786 246T966 460T1087 727T1130 1018Q1130 1179 1047 1274T813 1370Q674 1370 555 1288T363 1059T289 760Q289 647 345 578T496 508Q638 508 711 585T784 803Q784 886 759 938T690 999Q700 971 700 926Q700 885 676 860T610 834Q520 834 520 938Q520 994 571 1031T698 1069Q778 1069 831 1002T885 829Q885 729 827 642T674 502T487 449Q338 449 244 554T150 834Q150 984 241 1122T487 1345T809 1430Q969 1430 1089 1370T1274 1198T1339 948Q1339 675 1156 454T641 94Q738 43 883 -95L997 -204Q1199 -399 1393 -399L1491 -397L1483 -367Q1419 -344 1419 -270Q1419 -227 1456 -197T1540 -166Q1584 -166 1608 -193T1632 -270ZM502 78Q380 193 211 193Q177 193 142 165T98 106Q136 16 240 16Q298 16 377 34T502 78Z"/><glyph unicode="R" horiz-adv-x="1456" d="M1407 311Q1347 126 1276 52T1102 -23Q998 -23 946 43T893 252V428Q893 533 867 582T784 656T627 682H532Q476 471 414 257Q400 211 392 181T383 131Q383 101 407 85T484 57T567 43L557 0H-68L-57 43Q67 53 96 63Q162 86 184 164L477 1217Q485 1254 485 1264Q485 1284 476 1296T444 1319Q404 1334 364 1343T307 1354L319 1399H895Q1096 1399 1208 1328T1321 1124Q1321 977 1209 874T879 719V702Q976 684 1033 622T1096 451L1099 309Q1099 173 1119 123T1190 72Q1286 72 1360 324L1407 311ZM1102 1102Q1102 1341 846 1341H717L549 741H649Q860 741 981 836T1102 1102Z"/><glyph unicode="S" horiz-adv-x="1100" d="M1186 1419L1069 954H1024Q1001 1173 928 1268T723 1364Q597 1364 510 1288T422 1104Q422 1013 469 955T649 831Q845 732 924 643T1004 430Q1004 303 930 198T726 33T453 -27Q352 -27 261 2T115 76L20 -20H-49L66 459H113Q139 247 235 141T494 35Q583 35 656 74T770 179T811 319Q811 418 758 482T561 621Q375 714 309 798T242 1010Q242 1122 310 1218T496 1370T748 1425Q825 1425 899 1398T1020 1323L1116 1419H1186Z"/><glyph unicode="T" horiz-adv-x="1294" d="M1513 1399L1413 1042H1364Q1364 1117 1349 1180T1306 1282T1242 1332T1063 1343H977L659 180Q653 162 653 135Q653 119 661 106T685 83T770 60T877 43L864 0H166L178 43Q342 55 386 79T451 170L774 1343H688Q592 1343 520 1335Q482 1330 424 1284T306 1165T219 1042H170L270 1399H1513Z"/><glyph unicode="U" horiz-adv-x="1620" d="M1810 1399L1798 1356Q1756 1353 1689 1337T1595 1305Q1556 1282 1525 1225T1454 1032L1294 473Q1218 213 1063 90T664 -33Q444 -33 339 52T233 291Q233 381 262 485L465 1217Q473 1254 473 1264Q473 1284 464 1296T432 1319Q394 1333 353 1343T295 1354L307 1399H934L922 1354Q834 1348 762 1329Q695 1309 672 1227L477 526Q438 383 438 287Q438 168 512 112T731 55Q1103 55 1225 481L1378 1020Q1411 1131 1411 1208Q1411 1255 1396 1279T1308 1328T1190 1356L1202 1399H1810Z"/><glyph unicode="V" horiz-adv-x="1300" d="M1642 1399L1630 1356Q1574 1351 1487 1315Q1410 1279 1307 1155Q949 709 385 -23H328V1217Q328 1275 316 1298T264 1336T156 1356L168 1399H766L754 1356Q615 1347 571 1318T526 1223V260L936 784Q1020 892 1076 968T1179 1110T1250 1214T1270 1260Q1270 1294 1210 1321T1067 1356L1079 1399H1642Z"/><glyph unicode="W" horiz-adv-x="1952" d="M2281 1399L2269 1354Q2219 1351 2157 1326T2059 1266T1978 1163L1190 -16H1112V1042L406 -16H328V1217Q328 1275 315 1299T262 1337T156 1356L168 1399H766L754 1356Q615 1347 571 1318T526 1223V262L1096 1130Q1112 1172 1112 1235Q1112 1302 1071 1326T940 1356L952 1399H1550L1538 1356Q1401 1347 1356 1319T1311 1223V262L1833 1059Q1896 1157 1912 1194T1929 1255Q1929 1293 1869 1321T1718 1354L1731 1399H2281Z"/><glyph unicode="X" horiz-adv-x="1511" d="M1696 1399L1683 1354Q1573 1346 1500 1311T1347 1206T1153 1024T885 760Q965 576 1046 399T1160 164T1239 70Q1257 55 1386 45L1374 0H672L684 45Q922 56 922 150Q922 182 899 248T739 618Q450 339 363 244T276 125Q276 81 317 65T451 45L438 0H-143L-131 45Q-21 52 55 87T227 211Q422 388 713 674Q602 923 461 1223Q430 1288 371 1325Q357 1333 312 1342T223 1354L236 1399H938L926 1354Q692 1343 692 1251Q692 1203 738 1094T858 817Q1122 1075 1201 1163T1280 1278Q1280 1316 1239 1332T1102 1354L1114 1399H1696Z"/><glyph unicode="Y" horiz-adv-x="1286" d="M1505 1307Q1505 1171 1386 1171Q1340 1171 1311 1199T1282 1266Q1282 1292 1291 1307T1311 1337L1303 1348Q1224 1328 1109 1208T911 934T793 641L676 172Q670 148 670 131Q672 111 681 99T710 76T790 54T881 43L870 0H229L240 43Q353 52 387 63Q453 86 471 164L594 666Q614 751 614 885V944Q614 1118 549 1208T365 1298Q216 1298 152 1094L106 1108Q213 1423 463 1423Q556 1423 632 1369T752 1220T795 1020Q795 946 784 879L776 823H795Q903 1101 1057 1263T1368 1425Q1429 1425 1467 1391T1505 1307Z"/><glyph unicode="Z" horiz-adv-x="1221" d="M1407 1399L1399 1374L143 55H514Q637 55 722 69T842 109Q908 158 983 244T1116 420H1165L1016 0H-137L-131 25L1124 1343H797Q679 1343 625 1334T506 1276T377 1157T272 1022H223L362 1399H1407Z"/><glyph unicode="[" horiz-adv-x="1249" d="M1393 1489Q1393 1418 1341 1356T1199 1257T1014 1219Q906 1219 819 1245T634 1331L504 1407L61 -244L231 -167Q363 -107 463 -81T672 -55Q791 -55 859 -106T928 -242Q928 -297 899 -337T823 -414L782 -397Q807 -381 829 -347T852 -285Q852 -249 810 -234T684 -219Q413 -219 -12 -309L-63 -326L422 1489L465 1473Q837 1382 1112 1382Q1226 1382 1277 1408T1329 1499Q1329 1527 1315 1559L1362 1575Q1376 1563 1384 1539T1393 1489Z"/><glyph unicode="\" horiz-adv-x="963" d="M786 -420L688 -436L297 1528L397 1542L786 -420Z"/><glyph unicode="]" horiz-adv-x="1249" d="M1343 1489L858 -326L815 -309Q439 -219 168 -219Q54 -219 3 -245T-49 -336Q-49 -364 -35 -395L-82 -412Q-96 -399 -104 -375T-113 -326Q-113 -255 -59 -192T85 -92T266 -55Q373 -55 458 -80T647 -167L776 -244L1219 1407L1049 1331Q922 1272 820 1246T608 1219Q489 1219 421 1270T352 1405Q352 1461 381 1500T457 1577L498 1561Q468 1539 448 1507T428 1448Q428 1412 470 1397T596 1382Q869 1382 1292 1473L1343 1489Z"/><glyph unicode="^" horiz-adv-x="1151" d="M219 999L616 1524H756L983 999H836L647 1313L365 999H219Z"/><glyph unicode="_" horiz-adv-x="1229" d="M1024 -317H-225V-225H1024V-317Z"/><glyph unicode="`" horiz-adv-x="1024" d="M848 1096L817 1075L592 1303Q530 1360 530 1419Q530 1451 551 1474T606 1497Q648 1497 671 1471T717 1393Q802 1197 848 1096Z"/><glyph unicode="a" horiz-adv-x="1124" d="M1108 287Q1055 157 1014 97T925 7T815 -23Q722 -23 673 21T623 168L614 170Q477 -29 328 -29Q189 -29 118 56T47 295Q47 395 96 519T225 741T405 891T616 944Q690 944 739 904T801 795H807L854 932H1038L807 262Q796 232 785 185T774 111Q774 70 789 50T844 29Q907 29 955 85T1067 299L1108 287ZM782 719Q764 813 725 857T610 901Q520 901 437 808T297 551T240 252Q240 148 267 95T358 41Q506 41 627 242L782 719Z"/><glyph unicode="b" horiz-adv-x="1044" d="M1001 623Q1001 525 949 399T813 174T627 22T414 -31Q268 -31 181 39T94 229Q94 272 99 306T125 408L393 1247Q424 1340 424 1384Q424 1422 389 1437T280 1456L219 1458V1499L666 1520L424 784L430 782Q567 944 705 944Q849 944 925 860T1001 623ZM809 664Q809 874 674 874Q526 874 395 686L250 231Q250 14 420 14Q509 14 597 107T747 364T809 664Z"/><glyph unicode="c" horiz-adv-x="813" d="M807 760Q807 699 778 661T702 623Q655 623 625 648T594 715Q594 747 623 779T698 836Q690 876 663 892T580 909Q500 909 421 805T291 539T240 252Q240 149 273 94T387 39Q481 39 561 102T723 313L764 295Q590 -29 354 -29Q204 -29 126 56T47 295Q47 391 96 516T222 738T396 890T598 944Q688 944 747 890T807 760Z"/><glyph unicode="d" horiz-adv-x="1147" d="M1221 1520L825 262Q793 147 793 111Q793 69 808 49T860 29Q924 29 974 89T1083 299L1124 287Q1057 115 989 46T831 -23Q741 -23 693 20T645 164L637 166Q498 -29 334 -29Q194 -29 121 55T47 295Q47 395 98 519T229 740T410 890T623 944Q689 944 740 910T815 813H821L952 1247Q983 1353 983 1384Q983 1421 948 1437T828 1456L756 1458V1499L1221 1520ZM799 741Q772 829 730 865T616 901Q526 901 441 808T298 554T240 252Q240 148 269 95T365 41Q441 41 514 91T645 238L799 741Z"/><glyph unicode="e" horiz-adv-x="815" d="M807 807Q807 725 744 652T552 521T270 438Q240 299 240 246Q240 140 275 90T391 39Q483 39 561 101T723 313L760 295Q589 -29 360 -29Q208 -29 128 58T47 299Q47 398 98 523T230 744T414 892T633 944Q710 944 758 907T807 807ZM666 795Q666 903 575 903Q497 903 414 784T281 481Q400 502 485 550T618 664T666 795Z"/><glyph unicode="f" horiz-adv-x="629" d="M1098 1348Q1098 1310 1067 1278T993 1245Q945 1245 912 1270T879 1335Q879 1349 892 1385Q906 1425 909 1446Q901 1469 891 1475T864 1481Q765 1481 691 1377T555 1055L514 911H772L750 844H496L445 645Q311 119 258 -23T134 -260T-37 -419T-252 -483Q-352 -483 -405 -442T-459 -319Q-459 -279 -429 -246T-352 -213Q-305 -213 -274 -240T-242 -311Q-242 -343 -254 -362T-285 -408Q-282 -429 -269 -436T-244 -444Q-137 -444 -62 -348T88 -14T271 667L315 844H98L119 911H336L358 993Q404 1162 481 1276T658 1456T889 1522Q951 1522 999 1499T1072 1435T1098 1348Z"/><glyph unicode="g" horiz-adv-x="987" d="M1073 848Q1073 805 1046 779T979 752Q937 752 920 776T903 879Q854 879 827 869T776 844V831Q795 804 806 766T817 692Q817 598 766 519T624 394T434 348H305Q264 328 250 315T228 287T219 248Q219 215 236 197T293 169T438 147L494 142L666 121Q752 107 809 46T866 -109Q866 -217 794 -302T590 -433T283 -479Q105 -479 7 -419T-92 -254Q-92 -154 -4 -83T254 12V27Q157 46 116 80T74 168Q74 230 123 280T281 365V375Q206 409 166 464T125 588Q125 685 178 767T323 897T524 944Q629 944 754 894Q776 885 786 885L835 909Q903 944 979 944Q1014 944 1043 917T1073 848ZM645 745Q645 817 609 864T512 911Q454 911 409 870T334 745T305 571Q305 496 340 439T430 381Q487 381 534 426T613 563T645 745ZM702 -154Q702 -116 681 -81T627 -37Q545 -18 461 -13T297 -4Q84 -57 84 -246Q84 -298 114 -343T199 -413T334 -438Q504 -438 603 -363T702 -154Z"/><glyph unicode="h" horiz-adv-x="1135" d="M1108 287Q1035 107 971 42T819 -23Q721 -23 661 20T600 137Q600 201 641 307Q783 682 793 717T803 776Q803 829 779 854T700 879Q532 879 391 625L197 0H16L410 1247Q438 1342 438 1384Q438 1423 404 1438T296 1456L236 1458V1499L682 1520L436 778L444 776Q576 944 731 944Q831 944 899 877T967 715Q967 680 928 563L815 262Q770 141 770 98Q770 62 786 46T846 29Q919 29 970 98T1071 299L1108 287Z"/><glyph unicode="i" horiz-adv-x="684" d="M670 1337Q670 1273 633 1233T539 1192Q488 1192 462 1225T436 1307Q436 1370 475 1410T575 1450Q616 1450 643 1417T670 1337ZM645 287Q571 105 506 41T354 -23Q257 -23 199 20T141 137Q141 202 182 307L319 655Q338 702 352 752T367 817Q367 895 299 895Q237 895 187 835T78 618L39 633Q97 772 136 828T222 914T330 944Q415 944 475 896T535 770Q535 719 471 563L354 262Q307 141 307 100Q307 65 322 47T381 29Q454 29 506 98T608 299L645 287Z"/><glyph unicode="j" horiz-adv-x="594" d="M672 1337Q672 1273 635 1233T541 1192Q490 1192 464 1225T438 1307Q438 1367 477 1408T578 1450Q618 1450 645 1417T672 1337ZM539 772Q539 743 521 666T452 396T351 42T227 -230T47 -412T-184 -483Q-282 -483 -335 -440T-389 -313Q-389 -277 -358 -244T-281 -211Q-170 -211 -170 -313Q-170 -350 -209 -403Q-209 -444 -178 -444Q-69 -444 6 -348T156 -12Q230 232 294 478T366 769T371 817Q371 895 307 895Q244 895 194 832T86 618L47 633Q100 765 139 823T227 913T338 944Q424 944 481 896T539 772Z"/><glyph unicode="k" horiz-adv-x="1120" d="M1120 799Q1120 750 1087 710T1004 670Q971 670 943 689T915 737Q915 779 926 797T950 826T976 844T993 874Q985 897 973 905T932 913Q900 913 875 882T803 758Q720 590 571 545Q649 515 679 492T726 435T743 354Q743 299 726 213Q709 126 709 102Q709 64 724 47T778 29Q845 29 897 89T1008 299L1047 287Q977 114 909 46T752 -23Q644 -23 588 18T532 137Q532 183 553 281Q573 378 573 401Q573 464 532 493T426 522L362 518L197 0H16L412 1247Q440 1334 440 1384Q440 1423 405 1438T298 1456L238 1458V1499L684 1520L375 561L417 559H465Q541 559 598 605T709 752Q762 852 818 898T950 944Q1036 944 1078 910T1120 799Z"/><glyph unicode="l" horiz-adv-x="602" d="M678 1520L274 258Q264 229 250 177T236 102Q236 66 251 48T307 29Q381 29 433 98T537 299L573 287Q506 115 439 46T281 -23Q183 -23 128 20T72 135Q72 185 109 307L406 1247Q434 1334 434 1384Q434 1422 399 1437T291 1456L229 1458V1499L678 1520Z"/><glyph unicode="m" horiz-adv-x="1759" d="M1735 287Q1682 157 1641 97T1552 7T1442 -23Q1344 -23 1284 20T1223 137Q1223 175 1239 226T1389 627Q1401 659 1414 706T1427 780Q1427 830 1403 854T1321 879Q1191 879 1061 684L840 0H651L868 655Q895 725 895 780Q895 830 870 854T786 879Q714 879 632 805T498 625L293 0H106L328 655Q344 706 355 757T367 821Q367 866 353 880T309 895Q246 895 196 832T88 618L47 633Q103 768 143 826T231 914T338 944Q526 944 526 758L535 756Q600 847 674 895T825 944Q924 944 988 889T1057 756H1065Q1209 944 1352 944Q1454 944 1523 877T1593 715Q1593 696 1581 648T1554 563L1440 262Q1395 145 1395 102Q1395 66 1412 48T1470 29Q1533 29 1583 85T1696 299L1735 287Z"/><glyph unicode="n" horiz-adv-x="1227" d="M1202 287Q1149 157 1108 97T1019 7T909 -23Q811 -23 751 20T690 137Q690 174 702 214T735 307L856 627Q895 727 895 780Q895 831 873 855T795 879Q720 879 639 811T498 625L293 0H106L328 655Q344 706 355 757T367 821Q367 865 353 880T309 895Q246 895 196 832T88 618L47 633Q103 768 143 826T231 914T338 944Q433 944 479 896T526 758L535 756Q672 944 825 944Q925 944 993 877T1061 715Q1061 696 1049 648T1022 563L907 262Q862 141 862 102Q862 66 879 48T938 29Q1002 29 1054 90T1163 299L1202 287Z"/><glyph unicode="o" horiz-adv-x="985" d="M932 584Q932 482 884 363T758 156T578 19T358 -29Q274 -29 205 14T96 138T55 330Q55 432 103 549T228 755T408 894T629 944Q712 944 781 901T891 776T932 584ZM739 629Q739 759 700 834T598 909Q509 909 431 825T300 587T248 291Q248 149 288 80T389 10Q482 10 560 91T688 325T739 629Z"/><glyph unicode="p" horiz-adv-x="1155" d="M1112 623Q1112 522 1061 397T931 177T751 27T537 -27Q472 -27 416 9T342 104H334L231 -227Q203 -317 203 -365Q203 -403 238 -418T348 -435L408 -438L397 -479H-180L-170 -440Q-115 -440 -83 -432T-29 -400T8 -344T53 -223L330 655Q365 781 365 807Q365 858 352 876T309 895Q247 895 195 829T88 618L47 633Q103 768 143 826T231 914T338 944Q421 944 468 895T516 756L524 754Q603 853 674 898T821 944Q963 944 1037 861T1112 623ZM920 664Q920 766 889 820T788 874Q718 874 649 825T516 680L358 174Q380 89 425 54T545 18Q633 18 717 109T861 363T920 664Z"/><glyph unicode="q" horiz-adv-x="1061" d="M1051 932L682 -227Q653 -324 653 -365Q653 -387 663 -400T703 -423T842 -438L829 -479H244L256 -440Q387 -440 426 -395Q444 -376 461 -341T490 -266T612 119L604 121Q553 56 479 15T334 -27Q195 -27 121 55T47 295Q47 395 98 519T229 740T410 890T623 944Q693 944 749 907T825 813H834L915 932H1051ZM807 741Q781 828 735 864T616 901Q527 901 443 809T298 555T238 252Q238 148 267 96T365 43Q442 43 516 94T647 238L807 741Z"/><glyph unicode="r" horiz-adv-x="854" d="M913 819Q913 763 884 727T807 690Q753 690 730 715T707 776Q707 810 747 850Q754 857 754 864Q754 878 751 884T723 891Q643 891 498 627L307 0H123L328 655Q344 708 355 756T367 821Q367 866 353 880T309 895Q250 895 202 839T88 618L47 633Q103 768 143 826T231 914T338 944Q418 944 465 889T512 737L520 735Q587 840 619 872T691 924T780 944Q839 944 876 909T913 819Z"/><glyph unicode="s" horiz-adv-x="788" d="M750 729Q750 672 724 636T653 600Q609 600 581 622T553 684Q553 715 569 736T607 771T646 795T668 813Q660 855 613 879T494 903Q454 903 415 881T353 821T330 733Q330 676 368 629T499 521Q585 463 626 400T668 260Q668 189 618 121T486 12T315 -29Q221 -29 153 3T48 89T10 209Q10 267 45 308T123 350Q172 350 201 327T231 260Q231 219 207 195T141 170Q113 170 100 167T86 141Q86 93 150 54T293 14Q393 14 456 57T520 176Q520 243 480 297T349 413Q261 471 220 531T178 666Q178 731 224 797T345 903T496 944Q584 944 638 913T721 833T750 729Z"/><glyph unicode="t" horiz-adv-x="682" d="M748 911L725 844H465L400 625Q306 318 293 258L280 212Q254 127 254 102Q254 64 272 47T330 29Q404 29 461 100T569 303L608 291Q543 127 469 52T303 -23Q204 -23 147 20T90 135Q90 179 109 248T169 454T235 675T287 844H90L113 911H311L401 1229H580L485 911H748Z"/><glyph unicode="u" horiz-adv-x="1214" d="M1192 287Q1139 157 1098 97T1009 7T899 -23Q799 -23 752 24T705 168L696 170Q630 77 551 25T397 -27Q298 -27 229 41T160 203Q160 225 171 268T201 354L317 655Q360 761 360 821Q360 866 344 880T299 895Q237 895 187 835T78 618L41 633Q94 764 133 823T220 911T328 940Q414 940 473 896T532 780Q532 716 489 610L365 291Q326 194 326 143Q326 89 349 64T426 39Q501 39 578 98T713 258L920 913H1108L893 262Q881 225 871 179T860 115Q860 29 928 29Q991 29 1039 85T1151 299L1192 287Z"/><glyph unicode="v" horiz-adv-x="1069" d="M1038 780Q1038 576 958 387T739 84T440 -29Q321 -29 246 47T170 244Q170 373 251 506T537 821L524 831Q364 733 264 733Q183 733 147 756L78 563L39 575L164 940H193Q213 897 265 869T379 840Q451 840 515 864T649 950L682 920Q533 773 446 591T358 242Q358 156 401 105T520 53Q614 53 716 130T874 322T930 569Q930 658 877 721Q846 757 835 785T823 848Q823 888 854 916T930 944Q984 944 1011 907T1038 780Z"/><glyph unicode="w" horiz-adv-x="1485" d="M1450 768Q1450 561 1370 374T1162 79T893 -29Q825 -29 768 14T676 129Q605 56 532 15T408 -27Q296 -27 232 46T168 250Q168 378 246 509T522 821L512 831Q426 779 370 756T262 733Q185 733 145 756L82 573L43 586L164 940H193Q213 897 266 869T381 840Q455 840 510 864T633 950L664 920Q511 770 433 596T354 240Q354 147 384 97T471 47Q511 47 564 83T657 170Q639 263 639 336Q639 436 702 584T850 838T999 944Q1085 944 1085 780Q1085 688 1008 542T811 248Q828 165 875 118T987 70Q1076 70 1162 141T1300 327T1352 565Q1352 651 1298 711Q1269 742 1256 774T1243 848Q1243 890 1270 917T1341 944Q1397 944 1423 906T1450 768ZM1032 754Q1032 789 1009 807T956 825Q915 825 888 811T839 747T808 617T797 389L801 295Q902 421 967 550T1032 754Z"/><glyph unicode="x" horiz-adv-x="1090" d="M1128 795Q1128 734 1096 675T981 543L958 565Q982 608 1001 688T1020 827Q1020 866 1013 883T971 901Q906 901 844 840T725 653T633 382T600 195Q600 130 615 96T653 48T723 33Q875 33 979 301L1016 289Q893 -25 696 -25Q614 -25 570 -7T497 44T455 128T440 248H428Q316 -25 127 -25Q-37 -25 -37 115Q-37 251 137 403L164 379Q106 281 106 158Q106 86 110 67T124 39T150 29Q236 29 314 127T463 442T535 752Q535 820 512 857T432 895Q358 895 294 823T178 618L139 633Q209 801 286 872T455 944Q539 944 586 919T660 840T688 694H698Q739 801 817 872T979 944Q1052 944 1090 906T1128 795Z"/><glyph unicode="y" horiz-adv-x="1102" d="M1106 913L891 217Q783 -126 602 -307T180 -489Q86 -489 28 -463T-60 -394T-90 -297Q-90 -230 -55 -193T45 -156Q84 -156 111 -182T139 -242Q139 -297 119 -320T69 -345Q37 -347 26 -353T10 -379Q12 -408 31 -423T77 -445T168 -451Q328 -451 465 -296T696 150L688 152Q622 66 547 21T397 -25Q298 -25 229 43T160 205Q160 230 172 274T201 358Q282 564 322 667T362 825Q362 870 347 882T303 895Q240 895 190 834T80 618L43 633Q96 764 135 823T223 913T332 944Q418 944 476 900T535 784Q535 723 489 610L362 295Q324 194 324 145Q324 94 347 69T426 43Q497 43 572 93T713 233L924 913H1106Z"/><glyph unicode="z" horiz-adv-x="856" d="M920 881Q920 846 903 818T839 747T511 484T162 209L164 197Q216 190 330 157Q423 129 485 129Q674 129 674 217Q674 261 659 283T592 317L604 354Q768 320 768 154Q768 87 705 31T563 -25Q529 -25 477 -2T351 66Q267 115 217 136T131 158Q109 151 99 139T89 99L90 53Q90 -27 4 -27Q-19 -27 -37 -7T-55 43Q-55 74 -30 106T49 184T270 367T572 605T715 709L711 719Q631 722 510 752Q398 780 360 780Q295 780 260 765T225 698Q225 659 250 632T340 584L322 551Q119 619 119 745Q119 823 176 881T309 940Q404 940 518 849Q577 802 621 780T705 758Q743 758 760 771T778 813V850Q778 942 844 942Q920 942 920 881Z"/><glyph unicode="{" horiz-adv-x="881" d="M1049 1524L1036 1477Q908 1468 840 1432T737 1321T690 1114Q677 973 626 872T477 709T209 614L197 563Q318 537 373 507T456 431T483 315Q483 251 466 191T429 73T392 -37T375 -139Q375 -224 421 -257T594 -299L582 -346Q376 -346 287 -297T197 -127Q197 -59 217 4T261 126T306 241T326 352Q326 412 301 448T223 505T51 535L78 643Q253 660 329 698T442 813T489 1034Q501 1220 560 1324T734 1476T1049 1524Z"/><glyph unicode="|" horiz-adv-x="696" d="M440 -424H342V1528H440V-424Z"/><glyph unicode="}" horiz-adv-x="881" d="M885 643L858 535Q682 519 607 481T494 365T446 143Q433 -44 375 -147T201 -298T-113 -346L-100 -299Q30 -290 96 -255T198 -145T246 63Q260 214 313 313T461 471T727 563L739 614Q618 640 563 670T480 746T453 862Q453 926 470 987T507 1105T544 1215T561 1317Q561 1401 517 1434T342 1477L354 1524Q562 1524 650 1475T739 1305Q739 1236 719 1174T675 1052T630 937T610 825Q610 736 669 695T885 643Z"/><glyph unicode="~" horiz-adv-x="1106" d="M991 635Q964 533 881 456T709 379Q647 379 599 393T510 424T431 455T354 469Q280 469 236 446T154 352L113 367Q141 468 223 545T395 623Q453 623 501 609T591 578T672 546T750 532Q824 532 868 555T950 649L991 635Z"/><glyph unicode=" " horiz-adv-x="233"/><glyph unicode="¡" horiz-adv-x="748" d="M700 1292Q700 1236 662 1201T573 1165Q520 1165 483 1202T446 1292Q446 1345 482 1381T573 1417Q625 1417 662 1383T700 1292ZM522 961Q479 728 439 424Q403 147 393 111Q378 51 340 11T244 -29Q194 -29 167 2T139 86Q139 118 166 190T238 373T344 633T473 971L522 961Z"/><glyph unicode="¢" horiz-adv-x="932" d="M909 920Q909 861 881 822T805 782Q770 782 744 803T717 874Q717 952 801 995Q790 1053 715 1065L397 213Q426 199 469 199Q561 199 643 262T805 473L846 455Q672 131 436 131Q401 131 371 135L231 -238L186 -223L322 145Q225 175 175 254T125 455Q125 553 172 674T296 894T471 1047T674 1104L772 1372L821 1356L727 1100Q804 1087 856 1036T909 920ZM662 1069Q580 1069 498 964T366 701T315 412Q315 315 358 246L662 1069Z"/><glyph unicode="£" horiz-adv-x="1618" d="M1561 1090Q1561 935 1460 833T1206 731Q1117 731 1058 788T999 934Q999 1041 1059 1135L1102 1126Q1053 1041 1053 950Q1053 876 1091 831T1206 786Q1304 786 1371 876T1438 1090Q1438 1208 1383 1272T1225 1337Q1048 1337 947 1198T799 768L770 606H1118V561H764Q743 476 713 399H1079V356H696Q660 251 567 135Q643 112 707 82T830 24T947 -22T1069 -41Q1140 -41 1192 -7T1284 86T1366 266L1415 252Q1364 43 1225 -64T874 -172Q809 -172 737 -147T566 -66L463 -12Q398 -92 303 -140T111 -188Q22 -188 -28 -152T-78 -49Q-78 49 33 110T309 172Q410 172 494 154Q511 202 518 307L522 356H227V399H524L545 561H264V606H549Q590 840 686 1018T921 1291T1221 1386Q1380 1386 1470 1308T1561 1090ZM426 6Q280 72 147 72Q68 72 22 37T-25 -53Q-25 -87 13 -110T111 -133Q202 -133 287 -95T426 6Z"/><glyph unicode="¤" horiz-adv-x="1280" d="M1104 391L987 285L788 500Q717 453 621 453Q528 453 457 500L256 285L139 391L348 608Q319 647 309 686T299 780Q299 883 348 952L139 1167L256 1276L457 1061Q528 1108 621 1108Q717 1108 788 1061L991 1276L1108 1155L899 952Q928 911 938 871T948 780Q948 684 895 608L1104 391ZM797 780Q797 860 747 910T621 961Q545 961 497 911T449 780Q449 700 499 652T621 604Q700 604 748 652T797 780Z"/><glyph unicode="¥" horiz-adv-x="1227" d="M1401 1243L1389 1198Q1369 1196 1332 1185T1278 1165Q1154 1106 766 629Q736 594 707 543H1020L1010 496H682Q673 476 666 458T635 348H967L956 301H621L586 172Q580 145 580 131Q580 101 604 85T681 57T764 43L754 0H141L152 43Q258 51 295 60T356 95T392 163T432 301H111L121 348H444L485 496H164L174 543H489Q489 632 362 1038Q345 1094 322 1127T267 1177T176 1198L188 1243H760L748 1198Q551 1185 551 1139Q551 1115 588 968T678 639Q878 862 980 986T1083 1128Q1083 1157 1039 1175T922 1198L934 1243H1401Z"/><glyph unicode="¦" horiz-adv-x="696" d="M440 745H342V1528H440V745ZM440 -424H342V379H440V-424Z"/><glyph unicode="§" horiz-adv-x="1126" d="M1106 1323Q1106 1254 1064 1205T958 1155Q918 1155 889 1177T860 1237Q860 1272 875 1293T922 1327Q959 1342 971 1356T983 1395Q983 1462 858 1462Q769 1462 707 1391T645 1219Q645 1167 661 1117T710 999T792 848Q927 618 957 547T987 414Q987 276 897 193T639 96Q676 6 676 -78Q676 -183 627 -272T490 -413T301 -465Q230 -465 175 -438T89 -364T57 -264Q57 -196 100 -150T205 -104Q245 -104 274 -126T303 -186Q303 -245 245 -271Q211 -286 199 -301T186 -340Q186 -418 309 -418Q396 -418 459 -335T522 -141Q522 -87 511 -48T467 62T379 218Q304 335 259 419T200 546T186 651Q186 788 282 878T530 977Q498 1052 498 1133Q498 1231 547 1319T683 1459T874 1511Q944 1511 996 1486T1077 1416T1106 1323ZM836 336Q836 372 827 404T782 504Q708 640 647 746T545 938Q444 930 388 876T332 735Q332 678 360 610T521 326Q592 208 625 133Q726 153 781 205T836 336Z"/><glyph unicode="¨" horiz-adv-x="1024" d="M1061 1339Q1061 1281 1025 1242T930 1202Q883 1202 854 1232T825 1309Q825 1366 866 1405T967 1444Q1005 1444 1033 1413T1061 1339ZM625 1339Q625 1282 588 1242T492 1202Q447 1202 418 1231T389 1309Q389 1367 429 1405T528 1444Q567 1444 596 1413T625 1339Z"/><glyph unicode="©" horiz-adv-x="1946" d="M1841 514Q1841 273 1721 69T1396 -253T950 -371Q704 -371 498 -250T173 74T55 514Q55 747 173 951T499 1275T950 1395Q1192 1395 1397 1277T1721 955T1841 514ZM1753 514Q1753 732 1646 919T1354 1215T950 1323Q732 1323 546 1216T252 922T143 514Q143 292 251 103T546 -194T950 -301Q1168 -301 1354 -193T1646 105T1753 514ZM1354 313Q1290 171 1190 99T963 27Q741 27 607 156T473 506Q473 645 540 760T726 940T991 1004Q1051 1004 1116 984T1214 940L1260 1018H1315L1323 647H1276Q1238 762 1196 821T1095 911T952 942Q872 942 808 891T709 743T674 516Q674 400 716 308T834 167T1004 117Q1075 117 1129 139T1224 204T1309 334L1354 313Z"/><glyph unicode="ª" horiz-adv-x="758" d="M772 918Q727 814 692 780T610 745Q559 745 535 767T506 836H500Q465 792 430 767T346 741Q273 741 232 787T190 920Q190 997 238 1086T356 1223T504 1270Q585 1270 606 1200H610L629 1264H735L612 905Q596 865 596 827Q596 788 627 788Q688 788 737 928L772 918ZM616 598L602 547H141L156 598H616ZM582 1155Q572 1197 555 1215T500 1233Q452 1233 408 1180T335 1045T307 893Q307 791 373 791Q407 791 442 820T500 891L582 1155Z"/><glyph unicode="«" horiz-adv-x="1147" d="M1135 860L694 444L911 49L883 31L551 373Q532 391 526 400T520 420Q520 441 535 477T569 526Q960 778 1112 885L1135 860ZM707 860L266 444L483 49L455 31L123 373Q104 391 98 400T92 420Q92 445 107 479T141 526Q532 778 684 885L707 860Z"/><glyph unicode="¬" horiz-adv-x="1188" d="M1090 80H985V526H133V621H1090V80Z"/><glyph unicode="­" horiz-adv-x="717" d="M655 571L614 422H59L100 571H655Z"/><glyph unicode="®" horiz-adv-x="1012" d="M1016 1067Q1016 909 909 802T643 694Q485 694 378 801T270 1067Q270 1225 377 1332T643 1440Q801 1440 908 1333T1016 1067ZM975 1067Q975 1211 880 1309T643 1407Q502 1407 407 1309T311 1067Q311 923 406 825T643 727Q784 727 879 825T975 1067ZM874 952Q874 907 858 887T799 866Q723 866 711 971Q705 1024 684 1047T621 1071H586V932Q586 911 600 903T645 895V872H453V895Q487 895 499 904T512 932V1233Q512 1245 508 1253T484 1267T453 1272V1292H668Q728 1292 765 1266T803 1198Q803 1160 772 1133T684 1092V1085Q763 1071 778 1020L799 928Q807 901 827 901Q840 901 847 910T854 952H874ZM719 1186Q719 1229 700 1249T635 1270H586V1096H618Q719 1096 719 1186Z"/><glyph unicode="¯" horiz-adv-x="1024" d="M1094 1348L1061 1221H385L418 1348H1094Z"/><glyph unicode="°" horiz-adv-x="793" d="M797 1163Q797 1032 708 941T489 850Q362 850 274 931T186 1135Q186 1267 276 1359T502 1452Q580 1452 649 1415T757 1312T797 1163ZM676 1190Q676 1283 630 1336T502 1389Q416 1389 361 1309T305 1116Q305 1026 353 970T479 913Q565 913 619 988T676 1190Z"/><glyph unicode="±" horiz-adv-x="1536" d="M672 352V764H201V936H672V1352H864V936H1335V764H864V352H672ZM205 25V215H1335V25H205Z"/><glyph unicode="²" horiz-adv-x="895" d="M37 629L59 772L440 1112Q553 1215 581 1262T610 1358Q610 1397 585 1428T496 1460Q420 1460 357 1422T260 1348L152 1473Q209 1524 306 1572T541 1620Q676 1620 741 1549T807 1388Q807 1293 734 1195T500 977L256 788H743L721 629H37Z"/><glyph unicode="³" horiz-adv-x="895" d="M43 727L160 860Q197 823 256 800T391 776Q483 776 532 826T582 948Q582 1001 533 1034T399 1067H332L360 1212H416Q527 1212 573 1251T620 1358Q620 1394 592 1425T500 1456Q420 1456 357 1429T264 1380L205 1511Q244 1548 334 1584T537 1620Q676 1620 738 1554T801 1402Q801 1339 773 1279T688 1185T563 1149Q649 1138 707 1084T767 951Q767 924 760 893Q739 772 636 694T383 612Q163 612 43 727Z"/><glyph unicode="´" horiz-adv-x="1024" d="M922 1432Q922 1394 889 1357T754 1258Q530 1121 457 1073L434 1098Q623 1309 700 1405Q739 1451 774 1474T852 1497Q886 1497 904 1477T922 1432Z"/><glyph unicode="µ" horiz-adv-x="1253" d="M1233 287Q1163 110 1096 44T936 -23Q838 -23 792 25T745 168H737Q667 78 624 46T524 -5T389 -25Q320 -25 266 12T190 113H186L168 33Q143 -70 143 -201Q143 -301 133 -342T106 -407T64 -447T10 -463Q-31 -463 -54 -440T-78 -375Q-78 -347 -56 -294T13 -146Q65 -42 117 129L352 913H537L354 303Q338 250 338 209Q338 131 372 87T469 43Q524 43 578 74T680 156T754 258L948 913H1133L932 258Q926 241 914 189T901 113Q901 29 969 29Q1030 29 1080 86T1192 299L1233 287Z"/><glyph unicode="¶" horiz-adv-x="1247" d="M1419 1399L1409 1354H1118L717 -256H659L1061 1354H864L463 -256H406L643 700H623Q428 700 316 783T203 1008Q203 1113 264 1204T435 1347T684 1399H1419Z"/><glyph unicode="·" horiz-adv-x="578" d="M442 557Q442 502 404 464T309 426Q253 426 215 464T176 557Q176 612 215 651T309 690Q364 690 403 651T442 557Z"/><glyph unicode="¸" horiz-adv-x="1024" d="M532 -246Q532 -352 410 -408T47 -465L59 -418Q207 -415 289 -389T371 -299Q371 -257 334 -243T215 -229L295 16H352L311 -113Q423 -113 477 -145T532 -246Z"/><glyph unicode="¹" horiz-adv-x="768" d="M307 629L436 1440L193 1368L215 1507L528 1636H643L492 629H307Z"/><glyph unicode="º" horiz-adv-x="670" d="M670 1073Q670 995 625 913T508 786T356 741Q286 741 238 794T190 938Q190 1013 236 1096T351 1225T504 1270Q577 1270 623 1215T670 1073ZM602 598L588 547H127L141 598H602ZM557 1100Q557 1172 535 1203T487 1235Q442 1235 401 1192T331 1069T303 915Q303 844 323 811T375 778Q427 778 468 824T533 947T557 1100Z"/><glyph unicode="»" horiz-adv-x="1147" d="M1063 496Q1063 471 1049 437T1014 389Q640 148 471 31L449 55L889 471L672 866L700 885L1032 543Q1054 523 1058 515T1063 496ZM635 496Q635 471 621 437T586 389Q212 148 43 31L20 55L461 471L244 866L272 885L604 543Q626 523 630 515T635 496Z"/><glyph unicode="¼" horiz-adv-x="1219" d="M991 1534Q974 1500 950 1434T915 1325L786 840L780 805Q780 770 813 758Q819 754 834 752T944 739L932 694H387L399 739L432 741Q541 743 572 763T612 817L766 1399Q739 1393 692 1393Q630 1393 530 1477L555 1507Q628 1475 717 1475Q827 1475 965 1534H991ZM1104 571L1081 487H100L123 571H1104ZM893 -166Q798 -282 686 -303L621 -492H477L539 -307Q513 -303 416 -271Q335 -244 276 -244Q235 -244 217 -248Q163 -305 117 -305Q45 -305 45 -256Q45 -230 70 -219T127 -207L201 -211Q367 -79 485 381H676Q621 202 508 41T252 -217L287 -211L319 -207Q381 -207 511 -225L561 -231L664 49H811L709 -231Q753 -227 801 -203T877 -147L893 -166Z"/><glyph unicode="½" horiz-adv-x="1219" d="M991 1534Q974 1500 950 1434T915 1325L786 840L780 805Q780 770 813 758Q819 754 834 752T944 739L932 694H387L399 739L432 741Q541 743 572 763T612 817L766 1399Q739 1393 692 1393Q630 1393 530 1477L555 1507Q628 1475 717 1475Q827 1475 965 1534H991ZM1104 571L1081 487H100L123 571H1104ZM877 178Q877 47 765 -56T397 -264L276 -332H651Q705 -332 746 -293T829 -188L860 -205L719 -465H47L59 -406L198 -328Q382 -228 468 -165T606 -43T681 72T705 203Q705 261 668 293T569 326Q494 326 427 290T320 196T279 84Q279 23 356 23Q434 23 500 115L526 90Q413 -55 260 -55Q205 -55 175 -26T145 51Q145 124 213 202T386 328T598 375Q722 375 799 320T877 178Z"/><glyph unicode="¾" horiz-adv-x="1219" d="M1145 1370Q1145 1295 1079 1241T897 1169L874 1149Q1100 1149 1100 999Q1100 910 1030 836T840 720T578 678Q469 678 399 722T328 840Q328 901 367 944T461 987Q496 987 515 971T535 926Q535 872 496 856Q473 847 465 836T457 805Q457 768 492 748T592 727Q670 727 749 769T876 880T924 1026Q924 1064 900 1087T834 1110Q771 1110 701 1054L655 1018L627 1071Q812 1161 868 1201T952 1286T981 1389Q981 1431 949 1456T858 1481Q808 1481 750 1456T656 1392T621 1305Q621 1288 631 1273T670 1257Q707 1257 731 1271T776 1303L797 1278Q757 1241 702 1212T606 1182Q548 1182 515 1205T481 1270Q481 1335 542 1395T705 1492T913 1528Q1024 1528 1084 1487T1145 1370ZM1104 571L1081 487H100L123 571H1104ZM889 -166Q794 -282 682 -303L616 -492H473L535 -307Q509 -303 412 -271Q331 -244 272 -244Q231 -244 213 -248Q193 -269 165 -287T113 -305Q41 -305 41 -256Q41 -230 66 -219T123 -207L197 -211Q363 -79 481 381H672Q617 202 504 41T248 -217L283 -211L315 -207Q376 -207 507 -225L557 -231L659 49H807L705 -231Q748 -227 796 -203T872 -147L889 -166Z"/><glyph unicode="¿" horiz-adv-x="877" d="M780 1298Q780 1242 742 1207T653 1171Q600 1171 563 1208T526 1298Q526 1351 562 1387T653 1423Q705 1423 742 1389T780 1298ZM717 879Q717 779 650 704T412 547Q275 481 219 414T162 242Q162 185 193 135T277 56T403 27Q496 27 560 83T625 215Q625 280 586 323T483 367Q454 367 436 358V346H440Q472 346 498 323T524 268Q524 228 498 201T432 174Q383 174 354 200T324 274Q324 333 366 370T479 408Q557 408 609 353T662 217Q662 115 577 46T360 -23Q201 -23 103 68T4 299Q4 421 70 506T272 651Q439 725 494 763T580 845T612 946Q612 1044 516 1044Q469 1044 429 995T377 877L332 891Q344 968 402 1024T522 1081Q613 1081 665 1027T717 879Z"/><glyph unicode="À" horiz-adv-x="1300" d="M1241 43L1229 0H631L643 43Q781 52 825 80T870 176V553H408Q268 358 223 294T148 186T127 139Q127 102 193 74T330 43L317 0H-246L-233 43Q-193 47 -132 67T-21 129T90 244Q467 714 1012 1421H1069V182Q1069 124 1081 101T1133 63T1241 43ZM870 614V1139L461 614H870ZM1110 1510L1079 1489L854 1717Q792 1774 792 1833Q792 1865 813 1888T868 1911Q910 1911 933 1885T979 1807Q1064 1611 1110 1510Z"/><glyph unicode="Á" horiz-adv-x="1300" d="M1241 43L1229 0H631L643 43Q781 52 825 80T870 176V553H408Q268 358 223 294T148 186T127 139Q127 102 193 74T330 43L317 0H-246L-233 43Q-193 47 -132 67T-21 129T90 244Q467 714 1012 1421H1069V182Q1069 124 1081 101T1133 63T1241 43ZM870 614V1139L461 614H870ZM1393 1823Q1393 1785 1360 1748T1225 1649Q1001 1512 928 1464L905 1489Q1094 1700 1171 1796Q1210 1842 1245 1865T1323 1888Q1357 1888 1375 1868T1393 1823Z"/><glyph unicode="Â" horiz-adv-x="1300" d="M1241 43L1229 0H631L643 43Q781 52 825 80T870 176V553H408Q268 358 223 294T148 186T127 139Q127 102 193 74T330 43L317 0H-246L-233 43Q-193 47 -132 67T-21 129T90 244Q467 714 1012 1421H1069V182Q1069 124 1081 101T1133 63T1241 43ZM870 614V1139L461 614H870ZM1335 1448L1304 1431L1089 1708L715 1431L692 1452Q859 1629 1014 1802Q1041 1833 1058 1840T1116 1847Q1139 1847 1150 1845T1169 1838T1188 1806L1335 1448Z"/><glyph unicode="Ã" horiz-adv-x="1300" d="M1241 43L1229 0H631L643 43Q781 52 825 80T870 176V553H408Q268 358 223 294T148 186T127 139Q127 102 193 74T330 43L317 0H-246L-233 43Q-193 47 -132 67T-21 129T90 244Q467 714 1012 1421H1069V182Q1069 124 1081 101T1133 63T1241 43ZM870 614V1139L461 614H870ZM1489 1798Q1415 1668 1341 1605T1202 1542Q1154 1542 1119 1560T1052 1601T991 1642T925 1661Q872 1661 828 1631T725 1511L688 1530Q752 1649 829 1717T975 1786Q1023 1786 1058 1768T1124 1727T1185 1686T1251 1667Q1288 1667 1319 1681T1378 1722T1452 1817L1489 1798Z"/><glyph unicode="Ä" horiz-adv-x="1300" d="M1241 43L1229 0H631L643 43Q781 52 825 80T870 176V553H408Q268 358 223 294T148 186T127 139Q127 102 193 74T330 43L317 0H-246L-233 43Q-193 47 -132 67T-21 129T90 244Q467 714 1012 1421H1069V182Q1069 124 1081 101T1133 63T1241 43ZM870 614V1139L461 614H870ZM1405 1697Q1405 1639 1369 1600T1274 1560Q1227 1560 1198 1590T1169 1667Q1169 1724 1210 1763T1311 1802Q1349 1802 1377 1771T1405 1697ZM969 1697Q969 1640 932 1600T836 1560Q791 1560 762 1589T733 1667Q733 1725 773 1763T872 1802Q911 1802 940 1771T969 1697Z"/><glyph unicode="Å" horiz-adv-x="1300" d="M1241 43L1229 0H631L643 43Q781 52 825 80T870 176V553H408Q268 358 223 294T148 186T127 139Q127 102 193 74T330 43L317 0H-246L-233 43Q-193 47 -132 67T-21 129T90 244Q467 714 1012 1421H1069V182Q1069 124 1081 101T1133 63T1241 43ZM870 614V1139L461 614H870ZM1311 1688Q1311 1598 1245 1538T1081 1477Q978 1477 909 1536T840 1686Q840 1775 907 1839T1073 1903Q1171 1903 1241 1840T1311 1688ZM1202 1706Q1202 1772 1171 1812T1081 1853Q1025 1853 987 1801T948 1669Q948 1603 979 1565T1069 1526Q1128 1526 1165 1577T1202 1706Z"/><glyph unicode="Æ" horiz-adv-x="1939" d="M2015 1399L1927 1079H1876V1096Q1876 1157 1859 1209T1808 1295T1725 1336T1573 1343H1352L1186 752H1346Q1426 752 1485 780T1584 871T1653 1004H1706L1546 434H1497Q1503 472 1503 526Q1503 611 1485 636T1448 672T1401 689T1331 696H1171L1044 244Q1024 175 1024 145Q1024 94 1064 76T1231 57Q1406 57 1470 68T1567 104Q1632 158 1706 250T1806 393H1858L1724 0H549L563 43Q592 43 653 51T735 68Q803 93 823 170L932 561H471Q375 452 264 312T152 133Q152 100 211 74T338 45L326 0H-238L-225 45Q-177 48 -114 66T3 125T123 244Q772 1000 1047 1329Q992 1347 885 1354L895 1399H2015ZM1133 1321H1112L524 625H948L1133 1321Z"/><glyph unicode="Ç" horiz-adv-x="1286" d="M1389 1419L1290 913H1241Q1224 1086 1183 1179T1067 1319T881 1366Q744 1366 613 1253T404 948T326 541Q326 311 426 183T709 55Q839 55 946 127T1178 383L1225 354Q1125 204 1041 128T855 11T627 -31H596L569 -113Q791 -113 791 -246Q791 -352 669 -408T305 -465L317 -418Q465 -415 547 -389T629 -299Q629 -257 592 -243T473 -229L539 -27Q330 -4 214 135T98 504Q98 740 207 951T510 1293T915 1425Q1009 1425 1077 1402T1221 1315L1305 1419H1389Z"/><glyph unicode="È" horiz-adv-x="1305" d="M1380 1399L1292 1079H1241V1096Q1241 1157 1224 1209T1173 1295T1090 1336T938 1343H717L551 752H711Q791 752 850 780T949 871T1018 1004H1071L911 434H862Q868 472 868 526Q868 564 864 594T844 644T810 674T762 690T696 696H537L410 244Q389 179 389 145Q389 94 429 76T596 57Q771 57 835 68T932 104Q997 158 1071 250T1171 393H1223L1090 0H-86L-72 43Q-32 43 40 54T143 92T188 170L477 1214Q485 1251 485 1264Q485 1293 463 1308T383 1338T291 1354L305 1399H1380ZM950 1487L919 1466L694 1694Q632 1751 632 1810Q632 1842 653 1865T708 1888Q750 1888 773 1862T819 1784Q904 1588 950 1487Z"/><glyph unicode="É" horiz-adv-x="1305" d="M1380 1399L1292 1079H1241V1096Q1241 1157 1224 1209T1173 1295T1090 1336T938 1343H717L551 752H711Q791 752 850 780T949 871T1018 1004H1071L911 434H862Q868 472 868 526Q868 564 864 594T844 644T810 674T762 690T696 696H537L410 244Q389 179 389 145Q389 94 429 76T596 57Q771 57 835 68T932 104Q997 158 1071 250T1171 393H1223L1090 0H-86L-72 43Q-32 43 40 54T143 92T188 170L477 1214Q485 1251 485 1264Q485 1293 463 1308T383 1338T291 1354L305 1399H1380ZM1280 1823Q1280 1785 1247 1748T1112 1649Q888 1512 815 1464L792 1489Q981 1700 1058 1796Q1097 1842 1132 1865T1210 1888Q1244 1888 1262 1868T1280 1823Z"/><glyph unicode="Ê" horiz-adv-x="1305" d="M1380 1399L1292 1079H1241V1096Q1241 1157 1224 1209T1173 1295T1090 1336T938 1343H717L551 752H711Q791 752 850 780T949 871T1018 1004H1071L911 434H862Q868 472 868 526Q868 564 864 594T844 644T810 674T762 690T696 696H537L410 244Q389 179 389 145Q389 94 429 76T596 57Q771 57 835 68T932 104Q997 158 1071 250T1171 393H1223L1090 0H-86L-72 43Q-32 43 40 54T143 92T188 170L477 1214Q485 1251 485 1264Q485 1293 463 1308T383 1338T291 1354L305 1399H1380ZM1229 1493L1198 1476L983 1753L609 1476L586 1497Q753 1674 908 1847Q935 1878 952 1885T1010 1892Q1033 1892 1044 1890T1063 1883T1082 1851L1229 1493Z"/><glyph unicode="Ë" horiz-adv-x="1305" d="M1380 1399L1292 1079H1241V1096Q1241 1157 1224 1209T1173 1295T1090 1336T938 1343H717L551 752H711Q791 752 850 780T949 871T1018 1004H1071L911 434H862Q868 472 868 526Q868 564 864 594T844 644T810 674T762 690T696 696H537L410 244Q389 179 389 145Q389 94 429 76T596 57Q771 57 835 68T932 104Q997 158 1071 250T1171 393H1223L1090 0H-86L-72 43Q-32 43 40 54T143 92T188 170L477 1214Q485 1251 485 1264Q485 1293 463 1308T383 1338T291 1354L305 1399H1380ZM1272 1710Q1272 1652 1236 1613T1141 1573Q1094 1573 1065 1603T1036 1680Q1036 1737 1077 1776T1178 1815Q1216 1815 1244 1784T1272 1710ZM836 1710Q836 1653 799 1613T703 1573Q658 1573 629 1602T600 1680Q600 1738 640 1776T739 1815Q778 1815 807 1784T836 1710Z"/><glyph unicode="Ì" horiz-adv-x="795" d="M952 1399L940 1354Q852 1348 780 1329Q713 1309 690 1227L395 172Q389 145 389 131Q389 101 412 85T488 57T573 43L563 0H-61L-51 43Q65 52 97 61T150 90T185 148T489 1243L492 1264Q492 1284 482 1296T451 1319Q413 1333 372 1343T313 1354L326 1399H952ZM716 1487L685 1466L460 1694Q398 1751 398 1810Q398 1842 419 1865T474 1888Q516 1888 539 1862T585 1784Q670 1588 716 1487Z"/><glyph unicode="Í" horiz-adv-x="795" d="M952 1399L940 1354Q852 1348 780 1329Q713 1309 690 1227L395 172Q389 145 389 131Q389 101 412 85T488 57T573 43L563 0H-61L-51 43Q65 52 97 61T150 90T185 148T489 1243L492 1264Q492 1284 482 1296T451 1319Q413 1333 372 1343T313 1354L326 1399H952ZM1051 1823Q1051 1785 1018 1748T883 1649Q659 1512 586 1464L563 1489Q752 1700 829 1796Q868 1842 903 1865T981 1888Q1015 1888 1033 1868T1051 1823Z"/><glyph unicode="Î" horiz-adv-x="795" d="M952 1399L940 1354Q852 1348 780 1329Q713 1309 690 1227L395 172Q389 145 389 131Q389 101 412 85T488 57T573 43L563 0H-61L-51 43Q65 52 97 61T150 90T185 148T489 1243L492 1264Q492 1284 482 1296T451 1319Q413 1333 372 1343T313 1354L326 1399H952ZM972 1493L941 1476L726 1753L352 1476L329 1497Q496 1674 651 1847Q678 1878 695 1885T753 1892Q776 1892 787 1890T806 1883T825 1851L972 1493Z"/><glyph unicode="Ï" horiz-adv-x="795" d="M952 1399L940 1354Q852 1348 780 1329Q713 1309 690 1227L395 172Q389 145 389 131Q389 101 412 85T488 57T573 43L563 0H-61L-51 43Q65 52 97 61T150 90T185 148T489 1243L492 1264Q492 1284 482 1296T451 1319Q413 1333 372 1343T313 1354L326 1399H952ZM1027 1710Q1027 1652 991 1613T896 1573Q849 1573 820 1603T791 1680Q791 1737 832 1776T933 1815Q971 1815 999 1784T1027 1710ZM591 1710Q591 1653 554 1613T458 1573Q413 1573 384 1602T355 1680Q355 1738 395 1776T494 1815Q533 1815 562 1784T591 1710Z"/><glyph unicode="Ð" horiz-adv-x="1538" d="M1505 856Q1505 616 1382 422T1034 114T539 0H-68L-57 43Q67 53 96 63Q162 86 184 164L332 694H125L143 762H350L477 1217Q485 1254 485 1264Q485 1284 476 1296T444 1319Q404 1334 364 1343T307 1354L319 1399H926Q1099 1399 1229 1336T1432 1151T1505 856ZM1288 838Q1288 1087 1176 1214T852 1341Q783 1341 715 1337L553 762H850L831 694H535L401 217Q394 192 394 170Q394 129 426 94T563 59Q757 59 924 161T1189 443T1288 838Z"/><glyph unicode="Ñ" horiz-adv-x="1509" d="M1733 1399L1720 1356Q1680 1353 1613 1337T1518 1305Q1477 1281 1444 1219T1376 1030L1098 -14H1030L526 1161L324 389Q316 364 304 296T291 201Q291 149 307 122T391 71T512 43L500 0H-113L-100 43Q-57 46 10 64T104 98Q188 150 248 379L440 1102Q449 1138 449 1171Q449 1345 203 1354L217 1399H639L1112 297L1300 1018Q1333 1150 1333 1208Q1333 1247 1323 1270T1277 1310T1192 1340T1112 1356L1124 1399H1733ZM1465 1825Q1391 1695 1317 1632T1178 1569Q1130 1569 1095 1587T1028 1628T967 1669T901 1688Q848 1688 804 1658T701 1538L664 1557Q728 1676 805 1744T951 1813Q999 1813 1034 1795T1100 1754T1161 1713T1227 1694Q1264 1694 1295 1708T1354 1749T1428 1844L1465 1825Z"/><glyph unicode="Ò" horiz-adv-x="1475" d="M1456 881Q1456 633 1352 425T1056 92T637 -33Q476 -33 361 41T176 244T106 526Q106 762 216 972T515 1306T920 1430Q1165 1430 1310 1266T1456 881ZM1237 924Q1237 1143 1152 1255T905 1368Q753 1368 625 1259T411 931T326 471Q326 259 412 144T659 29Q819 29 947 142T1156 476T1237 924ZM1008 1487L977 1466L752 1694Q690 1751 690 1810Q690 1842 711 1865T766 1888Q808 1888 831 1862T877 1784Q962 1588 1008 1487Z"/><glyph unicode="Ó" horiz-adv-x="1475" d="M1456 881Q1456 633 1352 425T1056 92T637 -33Q476 -33 361 41T176 244T106 526Q106 762 216 972T515 1306T920 1430Q1165 1430 1310 1266T1456 881ZM1237 924Q1237 1143 1152 1255T905 1368Q753 1368 625 1259T411 931T326 471Q326 259 412 144T659 29Q819 29 947 142T1156 476T1237 924ZM1301 1823Q1301 1785 1268 1748T1133 1649Q909 1512 836 1464L813 1489Q1002 1700 1079 1796Q1118 1842 1153 1865T1231 1888Q1265 1888 1283 1868T1301 1823Z"/><glyph unicode="Ô" horiz-adv-x="1475" d="M1456 881Q1456 633 1352 425T1056 92T637 -33Q476 -33 361 41T176 244T106 526Q106 762 216 972T515 1306T920 1430Q1165 1430 1310 1266T1456 881ZM1237 924Q1237 1143 1152 1255T905 1368Q753 1368 625 1259T411 931T326 471Q326 259 412 144T659 29Q819 29 947 142T1156 476T1237 924ZM1255 1493L1224 1476L1009 1753L635 1476L612 1497Q779 1674 934 1847Q961 1878 978 1885T1036 1892Q1059 1892 1070 1890T1089 1883T1108 1851L1255 1493Z"/><glyph unicode="Õ" horiz-adv-x="1475" d="M1456 881Q1456 633 1352 425T1056 92T637 -33Q476 -33 361 41T176 244T106 526Q106 762 216 972T515 1306T920 1430Q1165 1430 1310 1266T1456 881ZM1237 924Q1237 1143 1152 1255T905 1368Q753 1368 625 1259T411 931T326 471Q326 259 412 144T659 29Q819 29 947 142T1156 476T1237 924ZM1411 1835Q1337 1705 1263 1642T1124 1579Q1076 1579 1041 1597T974 1638T913 1679T847 1698Q794 1698 750 1668T647 1548L610 1567Q674 1686 751 1754T897 1823Q945 1823 980 1805T1046 1764T1107 1723T1173 1704Q1210 1704 1241 1718T1300 1759T1374 1854L1411 1835Z"/><glyph unicode="Ö" horiz-adv-x="1475" d="M1456 881Q1456 633 1352 425T1056 92T637 -33Q476 -33 361 41T176 244T106 526Q106 762 216 972T515 1306T920 1430Q1165 1430 1310 1266T1456 881ZM1237 924Q1237 1143 1152 1255T905 1368Q753 1368 625 1259T411 931T326 471Q326 259 412 144T659 29Q819 29 947 142T1156 476T1237 924ZM1325 1710Q1325 1652 1289 1613T1194 1573Q1147 1573 1118 1603T1089 1680Q1089 1737 1130 1776T1231 1815Q1269 1815 1297 1784T1325 1710ZM889 1710Q889 1653 852 1613T756 1573Q711 1573 682 1602T653 1680Q653 1738 693 1776T792 1815Q831 1815 860 1784T889 1710Z"/><glyph unicode="×" horiz-adv-x="1188" d="M1106 131L1036 61L629 469L223 61L156 129L563 535L156 942L225 1012L633 604L1038 1012L1106 944L698 539L1106 131Z"/><glyph unicode="Ø" horiz-adv-x="1475" d="M1583 1442L1350 1223Q1401 1164 1428 1074T1456 881Q1456 633 1352 425T1056 92T637 -33Q383 -33 225 166L-35 -78L-74 -41L193 211Q106 348 106 526Q106 762 216 972T515 1306T920 1430Q1041 1430 1136 1391T1313 1266L1542 1481L1583 1442ZM1204 1167Q1131 1368 905 1368Q754 1368 626 1260T411 930T324 471Q324 382 332 336L1204 1167ZM1239 924Q1239 1028 1221 1108L346 272Q413 29 659 29Q820 29 948 143T1157 478T1239 924Z"/><glyph unicode="Ù" horiz-adv-x="1620" d="M1810 1399L1798 1356Q1756 1353 1689 1337T1595 1305Q1556 1282 1525 1225T1454 1032L1294 473Q1218 213 1063 90T664 -33Q444 -33 339 52T233 291Q233 381 262 485L465 1217Q473 1254 473 1264Q473 1284 464 1296T432 1319Q394 1333 353 1343T295 1354L307 1399H934L922 1354Q834 1348 762 1329Q695 1309 672 1227L477 526Q438 383 438 287Q438 168 512 112T731 55Q1103 55 1225 481L1378 1020Q1411 1131 1411 1208Q1411 1255 1396 1279T1308 1328T1190 1356L1202 1399H1810ZM1112 1487L1081 1466L856 1694Q794 1751 794 1810Q794 1842 815 1865T870 1888Q912 1888 935 1862T981 1784Q1066 1588 1112 1487Z"/><glyph unicode="Ú" horiz-adv-x="1620" d="M1810 1399L1798 1356Q1756 1353 1689 1337T1595 1305Q1556 1282 1525 1225T1454 1032L1294 473Q1218 213 1063 90T664 -33Q444 -33 339 52T233 291Q233 381 262 485L465 1217Q473 1254 473 1264Q473 1284 464 1296T432 1319Q394 1333 353 1343T295 1354L307 1399H934L922 1354Q834 1348 762 1329Q695 1309 672 1227L477 526Q438 383 438 287Q438 168 512 112T731 55Q1103 55 1225 481L1378 1020Q1411 1131 1411 1208Q1411 1255 1396 1279T1308 1328T1190 1356L1202 1399H1810ZM1465 1823Q1465 1785 1432 1748T1297 1649Q1073 1512 1000 1464L977 1489Q1166 1700 1243 1796Q1282 1842 1317 1865T1395 1888Q1429 1888 1447 1868T1465 1823Z"/><glyph unicode="Û" horiz-adv-x="1620" d="M1810 1399L1798 1356Q1756 1353 1689 1337T1595 1305Q1556 1282 1525 1225T1454 1032L1294 473Q1218 213 1063 90T664 -33Q444 -33 339 52T233 291Q233 381 262 485L465 1217Q473 1254 473 1264Q473 1284 464 1296T432 1319Q394 1333 353 1343T295 1354L307 1399H934L922 1354Q834 1348 762 1329Q695 1309 672 1227L477 526Q438 383 438 287Q438 168 512 112T731 55Q1103 55 1225 481L1378 1020Q1411 1131 1411 1208Q1411 1255 1396 1279T1308 1328T1190 1356L1202 1399H1810ZM1405 1493L1374 1476L1159 1753L785 1476L762 1497Q929 1674 1084 1847Q1111 1878 1128 1885T1186 1892Q1209 1892 1220 1890T1239 1883T1258 1851L1405 1493Z"/><glyph unicode="Ü" horiz-adv-x="1620" d="M1810 1399L1798 1356Q1756 1353 1689 1337T1595 1305Q1556 1282 1525 1225T1454 1032L1294 473Q1218 213 1063 90T664 -33Q444 -33 339 52T233 291Q233 381 262 485L465 1217Q473 1254 473 1264Q473 1284 464 1296T432 1319Q394 1333 353 1343T295 1354L307 1399H934L922 1354Q834 1348 762 1329Q695 1309 672 1227L477 526Q438 383 438 287Q438 168 512 112T731 55Q1103 55 1225 481L1378 1020Q1411 1131 1411 1208Q1411 1255 1396 1279T1308 1328T1190 1356L1202 1399H1810ZM1452 1710Q1452 1652 1416 1613T1321 1573Q1274 1573 1245 1603T1216 1680Q1216 1737 1257 1776T1358 1815Q1396 1815 1424 1784T1452 1710ZM1016 1710Q1016 1653 979 1613T883 1573Q838 1573 809 1602T780 1680Q780 1738 820 1776T919 1815Q958 1815 987 1784T1016 1710Z"/><glyph unicode="Ý" horiz-adv-x="1286" d="M1505 1307Q1505 1171 1386 1171Q1340 1171 1311 1199T1282 1266Q1282 1292 1291 1307T1311 1337L1303 1348Q1224 1328 1109 1208T911 934T793 641L676 172Q670 148 670 131Q672 111 681 99T710 76T790 54T881 43L870 0H229L240 43Q353 52 387 63Q453 86 471 164L594 666Q614 751 614 885V944Q614 1118 549 1208T365 1298Q216 1298 152 1094L106 1108Q213 1423 463 1423Q556 1423 632 1369T752 1220T795 1020Q795 946 784 879L776 823H795Q903 1101 1057 1263T1368 1425Q1429 1425 1467 1391T1505 1307ZM1313 1823Q1313 1785 1280 1748T1145 1649Q921 1512 848 1464L825 1489Q1014 1700 1091 1796Q1130 1842 1165 1865T1243 1888Q1277 1888 1295 1868T1313 1823Z"/><glyph unicode="Þ" horiz-adv-x="1225" d="M1206 795Q1206 587 1024 463T532 338H436L389 170Q383 148 383 131Q383 101 407 85T484 57T567 43L557 0H-68L-57 43Q67 53 96 63Q162 86 184 164L477 1217Q485 1254 485 1264Q485 1284 476 1296T444 1319Q404 1334 364 1343T307 1354L319 1399H938L928 1356L894 1354Q784 1346 744 1321T686 1235L647 1096H803Q993 1096 1099 1017T1206 795ZM989 776Q989 1038 723 1038H631L455 399H553Q757 399 873 500T989 776Z"/><glyph unicode="ß" horiz-adv-x="1118" d="M1167 1286Q1167 1149 1108 1044Q977 1004 912 952T846 840Q846 780 866 720T950 561L986 507Q1047 413 1047 334Q1047 226 998 145T868 17T700 -29Q631 -29 579 -3T497 68T467 162Q467 219 499 258T582 297Q629 297 657 275T686 211Q686 142 632 130Q605 124 591 119T578 98Q578 58 621 33T715 8Q792 8 837 59T883 209Q883 266 865 320T791 461Q726 555 709 600T692 694Q692 778 746 856T895 983Q954 1029 990 1105T1026 1262Q1026 1362 981 1421T846 1481Q747 1481 672 1374T535 1055L475 830Q321 227 267 53T141 -230T-37 -411T-264 -483Q-467 -483 -467 -319Q-467 -279 -437 -246T-360 -213Q-313 -213 -282 -240T-250 -311Q-250 -343 -262 -362T-293 -408Q-288 -444 -256 -444Q-164 -444 -96 -372T34 -127T203 476Q287 817 336 993Q371 1124 421 1215T551 1383T709 1491T881 1522Q1007 1522 1087 1454T1167 1286Z"/><glyph unicode="à" horiz-adv-x="1124" d="M1108 287Q1055 157 1014 97T925 7T815 -23Q722 -23 673 21T623 168L614 170Q477 -29 328 -29Q189 -29 118 56T47 295Q47 395 96 519T225 741T405 891T616 944Q690 944 739 904T801 795H807L854 932H1038L807 262Q796 232 785 185T774 111Q774 70 789 50T844 29Q907 29 955 85T1067 299L1108 287ZM782 719Q764 813 725 857T610 901Q520 901 437 808T297 551T240 252Q240 148 267 95T358 41Q506 41 627 242L782 719ZM996 1096L965 1075L740 1303Q678 1360 678 1419Q678 1451 699 1474T754 1497Q796 1497 819 1471T865 1393Q950 1197 996 1096Z"/><glyph unicode="á" horiz-adv-x="1124" d="M1108 287Q1055 157 1014 97T925 7T815 -23Q722 -23 673 21T623 168L614 170Q477 -29 328 -29Q189 -29 118 56T47 295Q47 395 96 519T225 741T405 891T616 944Q690 944 739 904T801 795H807L854 932H1038L807 262Q796 232 785 185T774 111Q774 70 789 50T844 29Q907 29 955 85T1067 299L1108 287ZM782 719Q764 813 725 857T610 901Q520 901 437 808T297 551T240 252Q240 148 267 95T358 41Q506 41 627 242L782 719ZM1045 1432Q1045 1394 1012 1357T877 1258Q653 1121 580 1073L557 1098Q746 1309 823 1405Q862 1451 897 1474T975 1497Q1009 1497 1027 1477T1045 1432Z"/><glyph unicode="â" horiz-adv-x="1124" d="M1108 287Q1055 157 1014 97T925 7T815 -23Q722 -23 673 21T623 168L614 170Q477 -29 328 -29Q189 -29 118 56T47 295Q47 395 96 519T225 741T405 891T616 944Q690 944 739 904T801 795H807L854 932H1038L807 262Q796 232 785 185T774 111Q774 70 789 50T844 29Q907 29 955 85T1067 299L1108 287ZM782 719Q764 813 725 857T610 901Q520 901 437 808T297 551T240 252Q240 148 267 95T358 41Q506 41 627 242L782 719ZM1005 1102L974 1085L759 1362L385 1085L362 1106Q529 1283 684 1456Q711 1487 728 1494T786 1501Q809 1501 820 1499T839 1492T858 1460L1005 1102Z"/><glyph unicode="ã" horiz-adv-x="1124" d="M1108 287Q1055 157 1014 97T925 7T815 -23Q722 -23 673 21T623 168L614 170Q477 -29 328 -29Q189 -29 118 56T47 295Q47 395 96 519T225 741T405 891T616 944Q690 944 739 904T801 795H807L854 932H1038L807 262Q796 232 785 185T774 111Q774 70 789 50T844 29Q907 29 955 85T1067 299L1108 287ZM782 719Q764 813 725 857T610 901Q520 901 437 808T297 551T240 252Q240 148 267 95T358 41Q506 41 627 242L782 719ZM1127 1413Q1053 1283 979 1220T840 1157Q792 1157 757 1175T690 1216T629 1257T563 1276Q510 1276 466 1246T363 1126L326 1145Q390 1264 467 1332T613 1401Q661 1401 696 1383T762 1342T823 1301T889 1282Q926 1282 957 1296T1016 1337T1090 1432L1127 1413Z"/><glyph unicode="ä" horiz-adv-x="1124" d="M1108 287Q1055 157 1014 97T925 7T815 -23Q722 -23 673 21T623 168L614 170Q477 -29 328 -29Q189 -29 118 56T47 295Q47 395 96 519T225 741T405 891T616 944Q690 944 739 904T801 795H807L854 932H1038L807 262Q796 232 785 185T774 111Q774 70 789 50T844 29Q907 29 955 85T1067 299L1108 287ZM782 719Q764 813 725 857T610 901Q520 901 437 808T297 551T240 252Q240 148 267 95T358 41Q506 41 627 242L782 719ZM1073 1339Q1073 1281 1037 1242T942 1202Q895 1202 866 1232T837 1309Q837 1366 878 1405T979 1444Q1017 1444 1045 1413T1073 1339ZM637 1339Q637 1282 600 1242T504 1202Q459 1202 430 1231T401 1309Q401 1367 441 1405T540 1444Q579 1444 608 1413T637 1339Z"/><glyph unicode="å" horiz-adv-x="1124" d="M1108 287Q1055 157 1014 97T925 7T815 -23Q722 -23 673 21T623 168L614 170Q477 -29 328 -29Q189 -29 118 56T47 295Q47 395 96 519T225 741T405 891T616 944Q690 944 739 904T801 795H807L854 932H1038L807 262Q796 232 785 185T774 111Q774 70 789 50T844 29Q907 29 955 85T1067 299L1108 287ZM782 719Q764 813 725 857T610 901Q520 901 437 808T297 551T240 252Q240 148 267 95T358 41Q506 41 627 242L782 719ZM952 1296Q952 1208 887 1147T723 1085Q620 1085 551 1144T481 1294Q481 1385 548 1448T715 1511Q813 1511 882 1448T952 1296ZM844 1315Q844 1381 813 1421T723 1462Q667 1462 629 1410T590 1278Q590 1212 621 1174T710 1135Q770 1135 807 1185T844 1315Z"/><glyph unicode="æ" horiz-adv-x="1423" d="M1415 807Q1415 725 1352 652T1160 521T879 438Q868 387 858 338T848 246Q848 140 883 90T999 39Q1091 39 1169 101T1331 313L1368 295Q1197 -29 969 -29Q843 -29 765 34T666 217H659Q581 88 500 30T328 -29Q189 -29 118 56T47 295Q47 395 96 519T225 741T405 891T616 944Q690 944 739 904T801 795H807L854 932H967L913 780Q1001 871 1079 907T1241 944Q1318 944 1366 907T1415 807ZM1274 795Q1274 903 1184 903Q1105 903 1022 784T889 481Q1008 502 1093 550T1226 663T1274 795ZM782 719Q764 813 725 857T610 901Q520 901 437 808T297 551T240 252Q240 148 267 95T358 41Q506 41 627 242L782 719Z"/><glyph unicode="ç" horiz-adv-x="813" d="M807 760Q807 699 778 661T702 623Q655 623 625 648T594 715Q594 747 623 779T698 836Q690 876 663 892T580 909Q500 909 421 805T291 539T240 252Q240 149 273 94T387 39Q481 39 561 102T723 313L764 295Q590 -29 354 -29H338L311 -113Q423 -113 477 -145T532 -246Q532 -352 410 -408T47 -465L59 -418Q373 -414 373 -299Q373 -257 335 -243T215 -229L283 -23Q165 -2 106 80T47 295Q47 391 96 516T222 738T396 890T598 944Q688 944 747 890T807 760Z"/><glyph unicode="è" horiz-adv-x="815" d="M807 807Q807 725 744 652T552 521T270 438Q240 299 240 246Q240 140 275 90T391 39Q483 39 561 101T723 313L760 295Q589 -29 360 -29Q208 -29 128 58T47 299Q47 398 98 523T230 744T414 892T633 944Q710 944 758 907T807 807ZM666 795Q666 903 575 903Q497 903 414 784T281 481Q400 502 485 550T618 664T666 795ZM661 1096L630 1075L405 1303Q343 1360 343 1419Q343 1451 364 1474T419 1497Q461 1497 484 1471T530 1393Q615 1197 661 1096Z"/><glyph unicode="é" horiz-adv-x="815" d="M807 807Q807 725 744 652T552 521T270 438Q240 299 240 246Q240 140 275 90T391 39Q483 39 561 101T723 313L760 295Q589 -29 360 -29Q208 -29 128 58T47 299Q47 398 98 523T230 744T414 892T633 944Q710 944 758 907T807 807ZM666 795Q666 903 575 903Q497 903 414 784T281 481Q400 502 485 550T618 664T666 795ZM965 1432Q965 1394 932 1357T797 1258Q573 1121 500 1073L477 1098Q666 1309 743 1405Q782 1451 817 1474T895 1497Q929 1497 947 1477T965 1432Z"/><glyph unicode="ê" horiz-adv-x="815" d="M807 807Q807 725 744 652T552 521T270 438Q240 299 240 246Q240 140 275 90T391 39Q483 39 561 101T723 313L760 295Q589 -29 360 -29Q208 -29 128 58T47 299Q47 398 98 523T230 744T414 892T633 944Q710 944 758 907T807 807ZM666 795Q666 903 575 903Q497 903 414 784T281 481Q400 502 485 550T618 664T666 795ZM1170 1328L1139 1311L924 1588L550 1311L527 1332Q694 1509 849 1682Q876 1713 893 1720T951 1727Q974 1727 985 1725T1004 1718T1023 1686L1170 1328Z"/><glyph unicode="ë" horiz-adv-x="815" d="M807 807Q807 725 744 652T552 521T270 438Q240 299 240 246Q240 140 275 90T391 39Q483 39 561 101T723 313L760 295Q589 -29 360 -29Q208 -29 128 58T47 299Q47 398 98 523T230 744T414 892T633 944Q710 944 758 907T807 807ZM666 795Q666 903 575 903Q497 903 414 784T281 481Q400 502 485 550T618 664T666 795ZM1226 1339Q1226 1281 1190 1242T1095 1202Q1048 1202 1019 1232T990 1309Q990 1366 1031 1405T1132 1444Q1170 1444 1198 1413T1226 1339ZM790 1339Q790 1282 753 1242T657 1202Q612 1202 583 1231T554 1309Q554 1367 594 1405T693 1444Q732 1444 761 1413T790 1339Z"/><glyph unicode="ì" horiz-adv-x="684" d="M645 287Q571 105 506 41T354 -23Q257 -23 199 20T141 137Q141 202 182 307L319 655Q338 702 352 752T367 817Q367 895 299 895Q237 895 187 835T78 618L39 633Q97 772 136 828T222 914T330 944Q415 944 475 896T535 770Q535 719 471 563L354 262Q307 141 307 100Q307 65 322 47T381 29Q454 29 506 98T608 299L645 287ZM534 1096L503 1075L278 1303Q216 1360 216 1419Q216 1451 237 1474T292 1497Q334 1497 357 1471T403 1393Q488 1197 534 1096Z"/><glyph unicode="í" horiz-adv-x="684" d="M645 287Q571 105 506 41T354 -23Q257 -23 199 20T141 137Q141 202 182 307L319 655Q338 702 352 752T367 817Q367 895 299 895Q237 895 187 835T78 618L39 633Q97 772 136 828T222 914T330 944Q415 944 475 896T535 770Q535 719 471 563L354 262Q307 141 307 100Q307 65 322 47T381 29Q454 29 506 98T608 299L645 287ZM1058 1432Q1058 1394 1025 1357T890 1258Q666 1121 593 1073L570 1098Q759 1309 836 1405Q875 1451 910 1474T988 1497Q1022 1497 1040 1477T1058 1432Z"/><glyph unicode="î" horiz-adv-x="684" d="M690 1100L655 1083L481 1358L168 1085L141 1106Q252 1234 372 1392Q387 1411 401 1429T436 1470T470 1497T516 1501Q550 1501 560 1497T575 1481L582 1460Q601 1403 623 1315T690 1100ZM645 287Q571 105 506 41T354 -23Q257 -23 199 20T141 137Q141 202 182 307L319 655Q338 702 352 752T367 817Q367 895 299 895Q237 895 187 835T78 618L39 633Q97 772 136 828T222 914T330 944Q415 944 475 896T535 770Q535 719 471 563L354 262Q307 141 307 100Q307 65 322 47T381 29Q454 29 506 98T608 299L645 287Z"/><glyph unicode="ï" horiz-adv-x="684" d="M797 1329Q797 1277 762 1242T678 1206Q628 1206 595 1240T561 1321Q561 1370 595 1406T678 1442Q731 1442 764 1408T797 1329ZM414 1329Q414 1277 379 1241T293 1204Q247 1204 213 1237T178 1321Q178 1370 212 1406T293 1442Q348 1442 381 1408T414 1329ZM645 287Q571 105 506 41T354 -23Q257 -23 199 20T141 137Q141 202 182 307L319 655Q338 702 352 752T367 817Q367 895 299 895Q237 895 187 835T78 618L39 633Q97 772 136 828T222 914T330 944Q415 944 475 896T535 770Q535 719 471 563L354 262Q307 141 307 100Q307 65 322 47T381 29Q454 29 506 98T608 299L645 287Z"/><glyph unicode="ð" horiz-adv-x="985" d="M1024 1491L821 1354Q985 1162 985 866Q985 609 903 402T678 83T358 -29Q274 -29 205 14T96 138T55 330Q55 471 140 626T348 862T608 944Q725 944 791 846H799Q805 902 805 958Q805 1156 735 1294L496 1133L467 1176L711 1341Q657 1434 569 1497L604 1534Q714 1469 786 1393L997 1538L1024 1491ZM741 629Q741 757 701 833T598 909Q509 909 431 825T300 587T248 291Q248 149 288 80T389 10Q483 10 562 93T691 326T741 629Z"/><glyph unicode="ñ" horiz-adv-x="1227" d="M1202 287Q1149 157 1108 97T1019 7T909 -23Q811 -23 751 20T690 137Q690 174 702 214T735 307L856 627Q895 727 895 780Q895 831 873 855T795 879Q720 879 639 811T498 625L293 0H106L328 655Q344 706 355 757T367 821Q367 865 353 880T309 895Q246 895 196 832T88 618L47 633Q103 768 143 826T231 914T338 944Q433 944 479 896T526 758L535 756Q672 944 825 944Q925 944 993 877T1061 715Q1061 696 1049 648T1022 563L907 262Q862 141 862 102Q862 66 879 48T938 29Q1002 29 1054 90T1163 299L1202 287ZM1194 1413Q1120 1283 1046 1220T907 1157Q859 1157 824 1175T757 1216T696 1257T630 1276Q577 1276 533 1246T430 1126L393 1145Q457 1264 534 1332T680 1401Q728 1401 763 1383T829 1342T890 1301T956 1282Q993 1282 1024 1296T1083 1337T1157 1432L1194 1413Z"/><glyph unicode="ò" horiz-adv-x="985" d="M932 584Q932 482 884 363T758 156T578 19T358 -29Q274 -29 205 14T96 138T55 330Q55 432 103 549T228 755T408 894T629 944Q712 944 781 901T891 776T932 584ZM739 629Q739 759 700 834T598 909Q509 909 431 825T300 587T248 291Q248 149 288 80T389 10Q482 10 560 91T688 325T739 629ZM718 1096L687 1075L462 1303Q400 1360 400 1419Q400 1451 421 1474T476 1497Q518 1497 541 1471T587 1393Q672 1197 718 1096Z"/><glyph unicode="ó" horiz-adv-x="985" d="M932 584Q932 482 884 363T758 156T578 19T358 -29Q274 -29 205 14T96 138T55 330Q55 432 103 549T228 755T408 894T629 944Q712 944 781 901T891 776T932 584ZM739 629Q739 759 700 834T598 909Q509 909 431 825T300 587T248 291Q248 149 288 80T389 10Q482 10 560 91T688 325T739 629ZM979 1432Q979 1394 946 1357T811 1258Q587 1121 514 1073L491 1098Q680 1309 757 1405Q796 1451 831 1474T909 1497Q943 1497 961 1477T979 1432Z"/><glyph unicode="ô" horiz-adv-x="985" d="M932 584Q932 482 884 363T758 156T578 19T358 -29Q274 -29 205 14T96 138T55 330Q55 432 103 549T228 755T408 894T629 944Q712 944 781 901T891 776T932 584ZM739 629Q739 759 700 834T598 909Q509 909 431 825T300 587T248 291Q248 149 288 80T389 10Q482 10 560 91T688 325T739 629ZM1213 1102L1182 1085L967 1362L593 1085L570 1106Q737 1283 892 1456Q919 1487 936 1494T994 1501Q1017 1501 1028 1499T1047 1492T1066 1460L1213 1102Z"/><glyph unicode="õ" horiz-adv-x="985" d="M932 584Q932 482 884 363T758 156T578 19T358 -29Q274 -29 205 14T96 138T55 330Q55 432 103 549T228 755T408 894T629 944Q712 944 781 901T891 776T932 584ZM739 629Q739 759 700 834T598 909Q509 909 431 825T300 587T248 291Q248 149 288 80T389 10Q482 10 560 91T688 325T739 629ZM1324 1413Q1250 1283 1176 1220T1037 1157Q989 1157 954 1175T887 1216T826 1257T760 1276Q707 1276 663 1246T560 1126L523 1145Q587 1264 664 1332T810 1401Q858 1401 893 1383T959 1342T1020 1301T1086 1282Q1123 1282 1154 1296T1213 1337T1287 1432L1324 1413Z"/><glyph unicode="ö" horiz-adv-x="985" d="M932 584Q932 482 884 363T758 156T578 19T358 -29Q274 -29 205 14T96 138T55 330Q55 432 103 549T228 755T408 894T629 944Q712 944 781 901T891 776T932 584ZM739 629Q739 759 700 834T598 909Q509 909 431 825T300 587T248 291Q248 149 288 80T389 10Q482 10 560 91T688 325T739 629ZM1285 1339Q1285 1281 1249 1242T1154 1202Q1107 1202 1078 1232T1049 1309Q1049 1366 1090 1405T1191 1444Q1229 1444 1257 1413T1285 1339ZM849 1339Q849 1282 812 1242T716 1202Q671 1202 642 1231T613 1309Q613 1367 653 1405T752 1444Q791 1444 820 1413T849 1339Z"/><glyph unicode="÷" horiz-adv-x="1188" d="M762 909Q762 856 723 817T631 778Q576 778 538 817T500 909Q500 961 538 999T631 1038Q685 1038 723 1000T762 909ZM1124 485H137V580H1124V485ZM762 154Q762 101 723 63T631 25Q575 25 538 63T500 154Q500 206 538 245T631 285Q684 285 723 246T762 154Z"/><glyph unicode="ø" horiz-adv-x="985" d="M1032 973L870 813Q932 720 932 584Q932 482 884 363T758 156T578 19T358 -29Q298 -29 237 -2T129 82L-27 -74L-63 -43L102 121Q55 211 55 330Q55 432 103 549T228 755T408 894T629 944Q684 944 740 922T840 850L995 1004L1032 973ZM741 629V660L739 690L250 197Q262 99 301 55T389 10Q483 10 562 93T691 326T741 629ZM731 748Q716 832 679 870T598 909Q510 909 432 827T300 590T246 291V256L731 748Z"/><glyph unicode="ù" horiz-adv-x="1214" d="M1192 287Q1139 157 1098 97T1009 7T899 -23Q799 -23 752 24T705 168L696 170Q630 77 551 25T397 -27Q298 -27 229 41T160 203Q160 225 171 268T201 354L317 655Q360 761 360 821Q360 866 344 880T299 895Q237 895 187 835T78 618L41 633Q94 764 133 823T220 911T328 940Q414 940 473 896T532 780Q532 716 489 610L365 291Q326 194 326 143Q326 89 349 64T426 39Q501 39 578 98T713 258L920 913H1108L893 262Q881 225 871 179T860 115Q860 29 928 29Q991 29 1039 85T1151 299L1192 287ZM1023 1096L992 1075L767 1303Q705 1360 705 1419Q705 1451 726 1474T781 1497Q823 1497 846 1471T892 1393Q977 1197 1023 1096Z"/><glyph unicode="ú" horiz-adv-x="1214" d="M1192 287Q1139 157 1098 97T1009 7T899 -23Q799 -23 752 24T705 168L696 170Q630 77 551 25T397 -27Q298 -27 229 41T160 203Q160 225 171 268T201 354L317 655Q360 761 360 821Q360 866 344 880T299 895Q237 895 187 835T78 618L41 633Q94 764 133 823T220 911T328 940Q414 940 473 896T532 780Q532 716 489 610L365 291Q326 194 326 143Q326 89 349 64T426 39Q501 39 578 98T713 258L920 913H1108L893 262Q881 225 871 179T860 115Q860 29 928 29Q991 29 1039 85T1151 299L1192 287ZM1133 1432Q1133 1394 1100 1357T965 1258Q741 1121 668 1073L645 1098Q834 1309 911 1405Q950 1451 985 1474T1063 1497Q1097 1497 1115 1477T1133 1432Z"/><glyph unicode="û" horiz-adv-x="1214" d="M1192 287Q1139 157 1098 97T1009 7T899 -23Q799 -23 752 24T705 168L696 170Q630 77 551 25T397 -27Q298 -27 229 41T160 203Q160 225 171 268T201 354L317 655Q360 761 360 821Q360 866 344 880T299 895Q237 895 187 835T78 618L41 633Q94 764 133 823T220 911T328 940Q414 940 473 896T532 780Q532 716 489 610L365 291Q326 194 326 143Q326 89 349 64T426 39Q501 39 578 98T713 258L920 913H1108L893 262Q881 225 871 179T860 115Q860 29 928 29Q991 29 1039 85T1151 299L1192 287ZM1053 1102L1022 1085L807 1362L433 1085L410 1106Q577 1283 732 1456Q759 1487 776 1494T834 1501Q857 1501 868 1499T887 1492T906 1460L1053 1102Z"/><glyph unicode="ü" horiz-adv-x="1214" d="M1192 287Q1139 157 1098 97T1009 7T899 -23Q799 -23 752 24T705 168L696 170Q630 77 551 25T397 -27Q298 -27 229 41T160 203Q160 225 171 268T201 354L317 655Q360 761 360 821Q360 866 344 880T299 895Q237 895 187 835T78 618L41 633Q94 764 133 823T220 911T328 940Q414 940 473 896T532 780Q532 716 489 610L365 291Q326 194 326 143Q326 89 349 64T426 39Q501 39 578 98T713 258L920 913H1108L893 262Q881 225 871 179T860 115Q860 29 928 29Q991 29 1039 85T1151 299L1192 287ZM1122 1339Q1122 1281 1086 1242T991 1202Q944 1202 915 1232T886 1309Q886 1366 927 1405T1028 1444Q1066 1444 1094 1413T1122 1339ZM686 1339Q686 1282 649 1242T553 1202Q508 1202 479 1231T450 1309Q450 1367 490 1405T589 1444Q628 1444 657 1413T686 1339Z"/><glyph unicode="ý" horiz-adv-x="1102" d="M1106 913L891 217Q783 -126 602 -307T180 -489Q86 -489 28 -463T-60 -394T-90 -297Q-90 -230 -55 -193T45 -156Q84 -156 111 -182T139 -242Q139 -297 119 -320T69 -345Q37 -347 26 -353T10 -379Q12 -408 31 -423T77 -445T168 -451Q328 -451 465 -296T696 150L688 152Q622 66 547 21T397 -25Q298 -25 229 43T160 205Q160 230 172 274T201 358Q282 564 322 667T362 825Q362 870 347 882T303 895Q240 895 190 834T80 618L43 633Q96 764 135 823T223 913T332 944Q418 944 476 900T535 784Q535 723 489 610L362 295Q324 194 324 145Q324 94 347 69T426 43Q497 43 572 93T713 233L924 913H1106ZM1127 1432Q1127 1394 1094 1357T959 1258Q735 1121 662 1073L639 1098Q828 1309 905 1405Q944 1451 979 1474T1057 1497Q1091 1497 1109 1477T1127 1432Z"/><glyph unicode="þ" horiz-adv-x="1044" d="M1001 623Q1001 527 950 402T815 178T629 27T416 -27Q341 -27 288 9T219 104H211L111 -227Q82 -325 82 -365Q82 -402 116 -417T223 -435L279 -438V-479H-299V-440Q-243 -440 -208 -432T-151 -402T-115 -351T-68 -223L389 1247Q420 1345 420 1384Q420 1422 385 1437T276 1456L215 1458V1499L662 1520L424 784L430 782Q567 944 705 944Q849 944 925 860T1001 623ZM809 664Q809 874 674 874Q526 874 395 686L238 180Q249 102 297 60T422 18Q513 18 602 114T750 372T809 664Z"/><glyph unicode="ÿ" horiz-adv-x="1102" d="M1106 913L891 217Q783 -126 602 -307T180 -489Q86 -489 28 -463T-60 -394T-90 -297Q-90 -230 -55 -193T45 -156Q84 -156 111 -182T139 -242Q139 -297 119 -320T69 -345Q37 -347 26 -353T10 -379Q12 -408 31 -423T77 -445T168 -451Q328 -451 465 -296T696 150L688 152Q622 66 547 21T397 -25Q298 -25 229 43T160 205Q160 230 172 274T201 358Q282 564 322 667T362 825Q362 870 347 882T303 895Q240 895 190 834T80 618L43 633Q96 764 135 823T223 913T332 944Q418 944 476 900T535 784Q535 723 489 610L362 295Q324 194 324 145Q324 94 347 69T426 43Q497 43 572 93T713 233L924 913H1106ZM1129 1339Q1129 1281 1093 1242T998 1202Q951 1202 922 1232T893 1309Q893 1366 934 1405T1035 1444Q1073 1444 1101 1413T1129 1339ZM693 1339Q693 1282 656 1242T560 1202Q515 1202 486 1231T457 1309Q457 1367 497 1405T596 1444Q635 1444 664 1413T693 1339Z"/><glyph unicode="ı" horiz-adv-x="684" d="M645 287Q571 105 506 41T354 -23Q257 -23 199 20T141 137Q141 202 182 307L319 655Q338 702 352 752T367 817Q367 895 299 895Q237 895 187 835T78 618L39 633Q97 772 136 828T222 914T330 944Q415 944 475 896T535 770Q535 719 471 563L354 262Q307 141 307 100Q307 65 322 47T381 29Q454 29 506 98T608 299L645 287Z"/><glyph unicode="Ł" horiz-adv-x="1288" d="M1223 397L1085 0H-86L-72 43Q-32 43 40 54T143 92T188 170L311 616L109 549L94 602L330 680L477 1214Q485 1251 485 1264Q485 1293 463 1308T383 1338T291 1354L305 1399H946L934 1354Q846 1348 774 1329Q707 1309 684 1227L551 754L909 872L922 817L535 690L410 244Q390 173 390 139Q390 93 431 75T604 57Q722 57 809 70T924 106Q976 144 1053 233T1174 397H1223Z"/><glyph unicode="ł" horiz-adv-x="602" d="M678 1520L422 719L596 776L608 725L401 657L274 258Q264 229 250 177T236 102Q236 66 251 48T307 29Q381 29 433 98T537 299L573 287Q506 115 439 46T281 -23Q183 -23 128 20T72 135Q72 201 109 307L199 590L45 541L33 590L217 651L406 1247Q434 1334 434 1384Q434 1422 399 1437T291 1456L229 1458V1499L678 1520Z"/><glyph unicode="Œ" horiz-adv-x="2046" d="M2122 1399L2034 1079H1982V1096Q1982 1157 1965 1209T1914 1295T1831 1336T1679 1343H1458L1292 752H1452Q1529 752 1588 779T1687 865T1759 1004H1812L1653 434H1604Q1610 472 1610 526Q1610 611 1587 642T1528 684T1438 696H1278L1151 244Q1130 172 1130 145Q1130 96 1169 77T1337 57Q1475 57 1526 61T1616 76T1690 118T1766 196T1852 301T1913 393H1964L1831 0H946L608 -4Q486 -4 404 31T243 151T135 325T106 539Q106 696 178 867T368 1159T627 1341T922 1403L1321 1399H2122ZM1176 1141Q1176 1245 1115 1294T926 1343Q770 1343 632 1227T410 907T326 475Q326 283 403 170T610 57Q675 57 723 70T836 127Q952 207 1085 702Q1143 913 1159 998T1176 1141Z"/><glyph unicode="œ" horiz-adv-x="1452" d="M1444 807Q1444 725 1381 652T1189 521T907 438Q877 299 877 246Q877 140 912 90T1028 39Q1120 39 1198 101T1360 313L1397 295Q1226 -29 997 -29Q897 -29 831 13T725 141Q566 -29 358 -29Q274 -29 205 14T96 138T55 330Q55 432 103 549T228 755T408 894T629 944Q808 944 889 750Q1049 944 1270 944Q1347 944 1395 907T1444 807ZM1303 795Q1303 903 1212 903Q1134 903 1051 784T918 481Q1037 502 1122 550T1255 664T1303 795ZM739 629Q739 759 700 834T598 909Q509 909 431 825T300 587T248 291Q248 149 288 80T389 10Q482 10 560 91T688 325T739 629Z"/><glyph unicode="Š" horiz-adv-x="1100" d="M1186 1419L1069 954H1024Q1001 1173 928 1268T723 1364Q597 1364 510 1288T422 1104Q422 1013 469 955T649 831Q845 732 924 643T1004 430Q1004 303 930 198T726 33T453 -27Q352 -27 261 2T115 76L20 -20H-49L66 459H113Q139 247 235 141T494 35Q583 35 656 74T770 179T811 319Q811 418 758 482T561 621Q375 714 309 798T242 1010Q242 1122 310 1218T496 1370T748 1425Q825 1425 899 1398T1020 1323L1116 1419H1186ZM1192 1890Q965 1646 871 1540Q847 1512 830 1504T768 1495Q733 1495 721 1501T697 1536L549 1894L580 1911L795 1634L1170 1911L1192 1890Z"/><glyph unicode="š" horiz-adv-x="788" d="M750 729Q750 672 724 636T653 600Q609 600 581 622T553 684Q553 715 569 736T607 771T646 795T668 813Q660 855 613 879T494 903Q454 903 415 881T353 821T330 733Q330 676 368 629T499 521Q585 463 626 400T668 260Q668 189 618 121T486 12T315 -29Q221 -29 153 3T48 89T10 209Q10 267 45 308T123 350Q172 350 201 327T231 260Q231 219 207 195T141 170Q113 170 100 167T86 141Q86 93 150 54T293 14Q393 14 456 57T520 176Q520 243 480 297T349 413Q261 471 220 531T178 666Q178 731 224 797T345 903T496 944Q584 944 638 913T721 833T750 729ZM1234 1499Q1007 1255 913 1149Q889 1121 872 1113T810 1104Q775 1104 763 1110T739 1145L591 1503L622 1520L837 1243L1212 1520L1234 1499Z"/><glyph unicode="Ÿ" horiz-adv-x="1286" d="M1505 1307Q1505 1171 1386 1171Q1340 1171 1311 1199T1282 1266Q1282 1292 1291 1307T1311 1337L1303 1348Q1224 1328 1109 1208T911 934T793 641L676 172Q670 148 670 131Q672 111 681 99T710 76T790 54T881 43L870 0H229L240 43Q353 52 387 63Q453 86 471 164L594 666Q614 751 614 885V944Q614 1118 549 1208T365 1298Q216 1298 152 1094L106 1108Q213 1423 463 1423Q556 1423 632 1369T752 1220T795 1020Q795 946 784 879L776 823H795Q903 1101 1057 1263T1368 1425Q1429 1425 1467 1391T1505 1307ZM1272 1689Q1272 1631 1236 1592T1141 1552Q1094 1552 1065 1582T1036 1659Q1036 1716 1077 1755T1178 1794Q1216 1794 1244 1763T1272 1689ZM836 1689Q836 1632 799 1592T703 1552Q658 1552 629 1581T600 1659Q600 1717 640 1755T739 1794Q778 1794 807 1763T836 1689Z"/><glyph unicode="Ž" horiz-adv-x="1221" d="M1407 1399L1399 1374L143 55H514Q637 55 722 69T842 109Q908 158 983 244T1116 420H1165L1016 0H-137L-131 25L1124 1343H797Q679 1343 625 1334T506 1276T377 1157T272 1022H223L362 1399H1407ZM1284 1890Q1057 1646 963 1540Q939 1512 922 1504T860 1495Q825 1495 813 1501T789 1536L641 1894L672 1911L887 1634L1262 1911L1284 1890Z"/><glyph unicode="ž" horiz-adv-x="856" d="M920 881Q920 846 903 818T839 747T511 484T162 209L164 197Q216 190 330 157Q423 129 485 129Q674 129 674 217Q674 261 659 283T592 317L604 354Q768 320 768 154Q768 87 705 31T563 -25Q529 -25 477 -2T351 66Q267 115 217 136T131 158Q109 151 99 139T89 99L90 53Q90 -27 4 -27Q-19 -27 -37 -7T-55 43Q-55 74 -30 106T49 184T270 367T572 605T715 709L711 719Q631 722 510 752Q398 780 360 780Q295 780 260 765T225 698Q225 659 250 632T340 584L322 551Q119 619 119 745Q119 823 176 881T309 940Q404 940 518 849Q577 802 621 780T705 758Q743 758 760 771T778 813V850Q778 942 844 942Q920 942 920 881ZM1254 1499Q1027 1255 933 1149Q909 1121 892 1113T830 1104Q795 1104 783 1110T759 1145L611 1503L642 1520L857 1243L1232 1520L1254 1499Z"/><glyph unicode="ƒ" horiz-adv-x="1012" d="M1122 1133Q1122 1085 1087 1050T1004 1014Q901 1014 901 1106Q901 1149 932 1212Q920 1237 889 1237Q687 1237 565 811L530 690H788L766 623H512L437 369Q363 123 314 15T192 -186T16 -338T-199 -397Q-302 -397 -351 -363T-401 -258Q-401 -207 -369 -173T-285 -139Q-238 -139 -210 -165T-182 -242Q-182 -266 -195 -294T-225 -338Q-212 -358 -190 -358Q-98 -358 -27 -287T111 -53T251 369L324 623H106L127 690H342Q396 889 480 1014T670 1209T907 1278Q999 1278 1060 1237T1122 1133Z"/><glyph unicode="ˆ" horiz-adv-x="1024" d="M987 1102L956 1085L741 1362L367 1085L344 1106Q511 1283 666 1456Q693 1487 710 1494T768 1501Q791 1501 802 1499T821 1492T840 1460L987 1102Z"/><glyph unicode="ˇ" horiz-adv-x="1024" d="M1083 1499Q856 1255 762 1149Q738 1121 721 1113T659 1104Q624 1104 612 1110T588 1145L440 1503L471 1520L686 1243L1061 1520L1083 1499Z"/><glyph unicode="˘" horiz-adv-x="1024" d="M1071 1475Q981 1297 875 1201T664 1104Q559 1104 502 1201T440 1475L479 1487Q528 1260 698 1260Q869 1260 1032 1487L1071 1475Z"/><glyph unicode="˙" horiz-adv-x="1024" d="M850 1350Q850 1299 815 1262T729 1225Q681 1225 646 1259T610 1341Q610 1390 644 1426T729 1462Q781 1462 815 1429T850 1350Z"/><glyph unicode="˚" horiz-adv-x="1024" d="M944 1296Q944 1208 879 1147T715 1085Q612 1085 543 1144T473 1294Q473 1385 540 1448T707 1511Q805 1511 874 1448T944 1296ZM836 1315Q836 1381 805 1421T715 1462Q659 1462 621 1410T582 1278Q582 1212 613 1174T702 1135Q762 1135 799 1185T836 1315Z"/><glyph unicode="˛" horiz-adv-x="1024" d="M469 0Q347 -97 290 -167T233 -297Q233 -338 251 -358T310 -391T434 -412L422 -463Q236 -462 153 -426T70 -317Q70 -159 403 0H469Z"/><glyph unicode="˜" horiz-adv-x="1024" d="M1094 1413Q1020 1283 946 1220T807 1157Q759 1157 724 1175T657 1216T596 1257T530 1276Q477 1276 433 1246T330 1126L293 1145Q357 1264 434 1332T580 1401Q628 1401 663 1383T729 1342T790 1301T856 1282Q893 1282 924 1296T983 1337T1057 1432L1094 1413Z"/><glyph unicode="˝" horiz-adv-x="1024" d="M737 1460Q737 1418 708 1386T635 1325L285 1094L266 1118Q455 1332 530 1425Q571 1475 603 1497T676 1520Q705 1520 721 1501T737 1460ZM1108 1460Q1108 1418 1079 1386T1006 1325L655 1094L637 1118Q826 1332 901 1425Q941 1475 973 1497T1047 1520Q1076 1520 1092 1501T1108 1460Z"/><glyph unicode="̄" horiz-adv-x="1024" d="M1094 1348L1061 1221H385L418 1348H1094Z"/><glyph unicode="Δ" horiz-adv-x="1536" d="M-51 0L768 1536H999L1327 0H-51ZM248 147H1061L823 1255L248 147Z"/><glyph unicode="Ω" horiz-adv-x="1188" d="M1112 485H150V580H1112V485Z"/><glyph unicode="μ" horiz-adv-x="1253" d="M1233 287Q1163 110 1096 44T936 -23Q838 -23 792 25T745 168H737Q667 78 624 46T524 -5T389 -25Q320 -25 266 12T190 113H186L168 33Q143 -70 143 -201Q143 -301 133 -342T106 -407T64 -447T10 -463Q-31 -463 -54 -440T-78 -375Q-78 -347 -56 -294T13 -146Q65 -42 117 129L352 913H537L354 303Q338 250 338 209Q338 131 372 87T469 43Q524 43 578 74T680 156T754 258L948 913H1133L932 258Q926 241 914 189T901 113Q901 29 969 29Q1030 29 1080 86T1192 299L1233 287Z"/><glyph unicode="π" horiz-adv-x="1407" d="M176 0L340 1028H59L84 1176H1415L1393 1028H1075L973 360Q965 306 965 266Q965 206 990 173T1112 139Q1163 139 1183 141T1237 152L1208 20Q1136 -16 1004 -16Q831 -16 798 47T765 191Q765 246 776 315L889 1028H524L365 0H176Z"/><glyph unicode="–" horiz-adv-x="1049" d="M983 604L950 485H106L139 604H983Z"/><glyph unicode="—" horiz-adv-x="1843" d="M1759 580L1726 465H186L219 580H1759Z"/><glyph unicode="‘" horiz-adv-x="379" d="M571 1460Q458 1400 404 1341T338 1210H379Q442 1210 475 1181T508 1106Q508 1057 468 1016T371 975Q308 975 272 1014T236 1135Q236 1241 311 1331T551 1507L571 1460Z"/><glyph unicode="’" horiz-adv-x="379" d="M557 1350Q557 1248 486 1158T242 977L221 1024Q333 1083 387 1142T455 1274H414Q351 1274 318 1303T285 1378Q285 1427 325 1468T422 1509Q485 1509 521 1470T557 1350Z"/><glyph unicode="‚" horiz-adv-x="461" d="M281 80Q281 -24 206 -115T-35 -293L-55 -246Q56 -187 109 -129T178 4H137Q74 4 41 34T8 109Q8 158 48 199T145 240Q208 240 244 201T281 80Z"/><glyph unicode="“" horiz-adv-x="725" d="M918 1460Q805 1400 750 1339T682 1204H719Q779 1204 812 1174T846 1098Q846 1047 808 1011T715 975Q650 975 616 1013T582 1124Q582 1235 656 1326T899 1505L918 1460ZM571 1460Q460 1401 404 1340T336 1204H373Q433 1204 466 1174T500 1098Q500 1047 462 1011T369 975Q304 975 270 1013T236 1124Q236 1235 310 1326T553 1505L571 1460Z"/><glyph unicode="”" horiz-adv-x="725" d="M903 1360Q903 1249 829 1158T586 979L567 1024Q675 1082 732 1142T803 1280H766Q706 1280 673 1310T639 1386Q639 1437 677 1473T770 1509Q835 1509 869 1471T903 1360ZM557 1360Q557 1249 483 1158T240 979L221 1024Q329 1082 386 1142T457 1280H420Q360 1280 327 1310T293 1386Q293 1437 331 1473T424 1509Q489 1509 523 1471T557 1360Z"/><glyph unicode="„" horiz-adv-x="807" d="M618 84Q618 -27 544 -118T301 -297L283 -252Q392 -194 448 -134T518 4H481Q421 4 388 35T354 111Q354 161 392 197T485 233Q550 233 584 195T618 84ZM272 84Q272 -27 198 -118T-45 -297L-63 -252Q51 -190 104 -131T172 4H135Q75 4 42 35T8 111Q8 161 46 197T139 233Q204 233 238 195T272 84Z"/><glyph unicode="†" horiz-adv-x="844" d="M881 979Q881 946 853 921T791 895Q755 895 733 915T694 959T663 1004T627 1024Q613 1024 605 1009T588 965Q426 485 354 233L313 246Q376 520 427 768T479 1040Q479 1071 453 1071Q435 1071 383 1040Q331 1008 305 1008Q268 1008 242 1033T215 1096Q215 1130 233 1150T281 1171Q312 1171 328 1148T344 1092Q365 1092 401 1103Q437 1114 453 1114Q474 1114 497 1101T532 1071Q541 1119 546 1231Q549 1335 557 1362Q577 1425 633 1425Q665 1425 683 1402T702 1350Q702 1314 652 1220Q587 1099 573 1059Q591 1069 616 1069Q665 1069 724 1017Q737 1005 752 999Q776 1042 817 1042Q842 1042 861 1025T881 979Z"/><glyph unicode="‡" horiz-adv-x="905" d="M920 1112Q920 1083 901 1063T850 1042Q818 1042 796 1055T756 1085T720 1114T678 1128Q668 1128 660 1122T641 1095T573 923T518 768L475 778Q492 851 512 982T532 1137Q532 1158 521 1168T481 1178Q464 1178 427 1168Q389 1157 371 1157Q333 1157 309 1176T285 1227Q285 1258 303 1276T350 1294Q378 1294 397 1272T416 1214Q437 1214 450 1217T483 1221Q508 1221 537 1211T582 1176L583 1193Q583 1213 579 1241T575 1311Q575 1371 596 1400T653 1430Q685 1430 704 1409T723 1356Q723 1328 706 1294T652 1207L625 1165Q643 1174 664 1174Q700 1174 766 1143L793 1130Q817 1174 858 1174Q883 1174 901 1156T920 1112ZM690 256Q690 225 672 207T625 188Q597 188 578 211T559 268L525 265L492 262Q467 262 438 272T393 307L392 288L396 240L399 172Q399 53 322 53Q290 53 271 74T252 127Q252 154 268 186T324 275L350 317Q334 309 311 309Q278 309 210 340L182 352Q158 309 117 309Q92 309 74 327T55 371Q55 400 74 420T125 440Q157 440 179 427T219 397T255 368T297 354Q313 354 324 371T348 419T457 715L500 705Q480 618 461 495T442 346Q442 324 453 315T494 305L522 308Q551 316 572 322T604 326Q642 326 666 307T690 256Z"/><glyph unicode="•" horiz-adv-x="846" d="M735 666Q735 553 654 472T457 391Q343 391 261 471T178 666Q178 781 261 862T457 944Q571 944 653 862T735 666Z"/><glyph unicode="…" horiz-adv-x="1614" d="M1458 113Q1458 61 1420 23T1327 -16Q1271 -16 1234 22T1196 113Q1196 165 1234 204T1327 244Q1382 244 1420 205T1458 113ZM897 113Q897 61 859 23T766 -16Q710 -16 673 22T635 113Q635 165 673 204T766 244Q821 244 859 205T897 113ZM336 113Q336 60 297 22T205 -16Q149 -16 112 22T74 113Q74 165 112 204T205 244Q258 244 297 205T336 113Z"/><glyph unicode="‰" horiz-adv-x="2462" d="M2359 371Q2359 266 2301 174T2146 28T1950 -27Q1833 -27 1755 43T1677 225Q1677 324 1734 418T1886 569T2083 627Q2205 627 2282 556T2359 371ZM1577 371Q1577 266 1519 174T1364 28T1167 -27Q1050 -27 973 44T895 225Q895 324 952 418T1104 569T1300 627Q1423 627 1500 556T1577 371ZM1569 1376L205 -201L154 -164L1513 1413L1569 1376ZM844 1012Q844 907 786 815T631 669T434 614Q317 614 240 685T162 866Q162 966 218 1060T371 1211T567 1268Q690 1268 767 1197T844 1012ZM2204 416Q2204 578 2083 578Q2020 578 1962 520T1869 367T1833 182Q1833 25 1956 25Q2018 25 2077 80T2170 227T2204 416ZM1421 416Q1421 578 1300 578Q1237 578 1180 521T1087 367T1051 182Q1051 25 1174 25Q1235 25 1293 80T1386 225T1421 416ZM688 1057Q688 1219 567 1219Q504 1219 446 1161T353 1008T317 823Q317 666 440 666Q502 666 561 721T654 868T688 1057Z"/><glyph unicode="‹" horiz-adv-x="719" d="M707 860L266 444L483 49L455 31L123 373Q104 391 98 400T92 420Q92 445 107 479T141 526Q532 778 684 885L707 860Z"/><glyph unicode="›" horiz-adv-x="719" d="M635 496Q635 471 621 437T586 389Q212 148 43 31L20 55L461 471L244 866L272 885L604 543Q626 523 630 515T635 496Z"/><glyph unicode="⁄" horiz-adv-x="696" d="M1053 1485L-348 -434L-430 -381L971 1540L1053 1485Z"/><glyph unicode="€" horiz-adv-x="1260" d="M256 678H100L113 725H268Q321 883 419 1008T646 1201T913 1270Q1061 1270 1149 1209T1237 1047Q1237 974 1203 931T1114 887Q1068 887 1040 909T1012 969Q1012 1011 1033 1042Q1055 1077 1059 1108Q1054 1160 1010 1190T895 1221Q757 1221 642 1085T465 725H938L926 678H455Q438 625 426 522H817L803 475H420L416 399Q416 234 485 148T686 61Q763 61 825 86T941 162T1059 315L1106 287Q918 -29 612 -29Q422 -29 318 82T213 401Q213 439 217 475H59L74 522H223Q234 603 256 678Z"/><glyph unicode="℗" horiz-adv-x="1946" d="M1841 514Q1841 273 1721 69T1396 -253T950 -371Q704 -371 498 -250T173 74T55 514Q55 747 173 951T499 1275T950 1395Q1192 1395 1397 1277T1721 955T1841 514ZM1753 514Q1753 732 1646 919T1354 1215T950 1323Q732 1323 546 1216T252 922T143 514Q143 292 251 103T546 -194T950 -301Q1168 -301 1354 -193T1646 105T1753 514ZM1411 748Q1411 662 1363 595T1228 488T1038 449H930V176Q930 129 973 115Q1025 100 1122 94V51H578V94Q621 98 670 108T734 135T748 176V848Q748 897 700 911Q625 932 571 936V979H1100Q1237 979 1324 915T1411 748ZM1204 713Q1204 817 1155 873T1018 930H930V502H991Q1089 502 1146 559T1204 713Z"/><glyph unicode="™" horiz-adv-x="1356" d="M1507 887H1231V913L1246 915Q1302 920 1314 931T1327 963V1319H1315L1135 893H1114L1097 942L950 1309H938V1038Q938 991 947 965T975 931T1042 913V887H795V913L809 915Q868 921 881 946T895 1032V1286Q895 1327 872 1348Q835 1370 801 1370V1399H1008L1159 1034L1276 1331Q1287 1361 1292 1399H1505V1370L1492 1369L1442 1358Q1421 1348 1421 1323V963Q1421 940 1436 931T1493 916L1507 913V887ZM737 1247H713Q700 1287 678 1321T637 1358L608 1360H549V961Q549 935 571 926L637 913V887H360V913L395 917Q453 923 453 956V1360H393L362 1358Q341 1355 317 1317T285 1247H260V1399H737V1247Z"/><glyph unicode="Ω" horiz-adv-x="1188" d="M1112 485H150V580H1112V485Z"/><glyph unicode="∂" horiz-adv-x="1264" d="M1223 596Q1223 532 1179 488T1069 444Q1033 444 1007 457T956 488T902 523T831 547L813 530Q801 459 733 408L731 387Q756 355 784 338T840 307Q952 256 952 152Q952 89 905 43T793 -4Q729 -4 684 40T639 150Q639 175 658 238Q676 301 676 342V365L662 375L641 373H621Q560 373 506 410L479 408Q450 364 436 283Q424 203 383 158T276 113Q213 113 166 159T119 270Q119 335 167 379T289 424H319Q391 424 440 451L446 479Q426 523 426 567Q426 594 432 618L422 645Q405 651 367 651Q331 651 295 644Q258 637 236 637Q169 637 124 683T78 793Q78 855 122 902T233 950Q346 950 386 826Q404 768 416 743T449 698L479 700Q539 762 621 762L643 776Q643 817 632 847T608 902T584 953T573 1010Q573 1075 618 1117T729 1159Q795 1159 838 1114T881 1004Q881 963 865 934T814 880Q763 843 740 820T700 766L709 741Q785 702 807 623L831 610Q860 620 882 636T950 698Q1006 754 1073 754Q1133 754 1178 709T1223 596ZM758 569Q758 627 719 668T621 709Q563 709 523 669T483 569Q483 509 522 468T621 426Q681 426 719 468T758 569Z"/><glyph unicode="∆" horiz-adv-x="1536" d="M-51 0L768 1536H999L1327 0H-51ZM248 147H1061L823 1255L248 147Z"/><glyph unicode="∏" horiz-adv-x="1536" d="M184 0L395 1348H143L172 1524H1612L1583 1348H1335L1124 0H915L1133 1356H604L391 0H184Z"/><glyph unicode="∑" horiz-adv-x="1151" d="M-76 0L-51 143L584 801L156 1360L184 1524H1196L1167 1343H416L823 788L236 184H1049L1020 0H-76Z"/><glyph unicode="−" horiz-adv-x="1188" d="M1112 485H150V580H1112V485Z"/><glyph unicode="∕" horiz-adv-x="696" d="M1053 1485L-348 -434L-430 -381L971 1540L1053 1485Z"/><glyph unicode="∙" horiz-adv-x="578" d="M442 557Q442 502 404 464T309 426Q253 426 215 464T176 557Q176 612 215 651T309 690Q364 690 403 651T442 557Z"/><glyph unicode="√" horiz-adv-x="1280" d="M80 444L25 612L369 895L520 256L1251 1548H1440L483 -129H457L276 608L80 444Z"/><glyph unicode="∞" horiz-adv-x="1536" d="M1071 395Q924 395 840 479Q801 524 768 588Q628 395 440 395Q285 395 191 508T96 809Q96 983 207 1100T468 1217Q691 1217 780 1028Q892 1217 1100 1217Q1247 1217 1345 1113T1444 819Q1444 639 1341 517T1071 395ZM471 1049Q377 1049 317 982T256 793Q256 668 302 611T449 553Q626 553 700 809Q630 1049 471 1049ZM1071 555Q1155 555 1217 625T1280 815Q1280 915 1234 988T1079 1061Q973 1061 920 969Q881 895 848 805Q860 651 920 608Q983 555 1071 555Z"/><glyph unicode="∫" horiz-adv-x="1264" d="M1223 596Q1223 532 1179 488T1069 444Q1033 444 1007 457T956 488T902 523T831 547L813 530Q801 459 733 408L731 387Q756 355 784 338T840 307Q952 256 952 152Q952 89 905 43T793 -4Q729 -4 684 40T639 150Q639 175 658 238Q676 301 676 342V365L662 375L641 373H621Q560 373 506 410L479 408Q450 364 436 283Q424 203 383 158T276 113Q213 113 166 159T119 270Q119 335 167 379T289 424H319Q391 424 440 451L446 479Q426 523 426 567Q426 594 432 618L422 645Q405 651 367 651Q331 651 295 644Q258 637 236 637Q169 637 124 683T78 793Q78 855 122 902T233 950Q346 950 386 826Q404 768 416 743T449 698L479 700Q539 762 621 762L643 776Q643 817 632 847T608 902T584 953T573 1010Q573 1075 618 1117T729 1159Q795 1159 838 1114T881 1004Q881 963 865 934T814 880Q763 843 740 820T700 766L709 741Q785 702 807 623L831 610Q860 620 882 636T950 698Q1006 754 1073 754Q1133 754 1178 709T1223 596ZM758 569Q758 627 719 668T621 709Q563 709 523 669T483 569Q483 509 522 468T621 426Q681 426 719 468T758 569Z"/><glyph unicode="≈" horiz-adv-x="1188" d="M1106 131L1036 61L629 469L223 61L156 129L563 535L156 942L225 1012L633 604L1038 1012L1106 944L698 539L1106 131Z"/><glyph unicode="≠" horiz-adv-x="1536" d="M209 403V592H588L797 981H209V1163H893L995 1356H1167L1065 1163H1327V981H969L760 592H1327V403H659L549 188H373L487 403H209Z"/><glyph unicode="≤" horiz-adv-x="1536" d="M1348 236L209 709V872L1348 1343V1141L436 793L1348 440V236ZM213 41V215H1348V41H213Z"/><glyph unicode="≥" horiz-adv-x="1536" d="M213 236V440L1128 793L213 1141V1343L1352 872V709L213 236ZM213 41V215H1348V41H213Z"/><glyph unicode="◊" horiz-adv-x="1151" d="M471 -47L68 756L471 1561H655L1061 756L655 -47H471ZM559 156L864 768L571 1356L264 739L559 156Z"/><glyph unicode="" horiz-adv-x="1264" d="M1223 596Q1223 532 1179 488T1069 444Q1033 444 1007 457T956 488T902 523T831 547L813 530Q801 459 733 408L731 387Q756 355 784 338T840 307Q952 256 952 152Q952 89 905 43T793 -4Q729 -4 684 40T639 150Q639 175 658 238Q676 301 676 342V365L662 375L641 373H621Q560 373 506 410L479 408Q450 364 436 283Q424 203 383 158T276 113Q213 113 166 159T119 270Q119 335 167 379T289 424H319Q391 424 440 451L446 479Q426 523 426 567Q426 594 432 618L422 645Q405 651 367 651Q331 651 295 644Q258 637 236 637Q169 637 124 683T78 793Q78 855 122 902T233 950Q346 950 386 826Q404 768 416 743T449 698L479 700Q539 762 621 762L643 776Q643 817 632 847T608 902T584 953T573 1010Q573 1075 618 1117T729 1159Q795 1159 838 1114T881 1004Q881 963 865 934T814 880Q763 843 740 820T700 766L709 741Q785 702 807 623L831 610Q860 620 882 636T950 698Q1006 754 1073 754Q1133 754 1178 709T1223 596ZM758 569Q758 627 719 668T621 709Q563 709 523 669T483 569Q483 509 522 468T621 426Q681 426 719 468T758 569Z"/><glyph unicode="ﬀ" horiz-adv-x="1239" d="M1708 1348Q1708 1311 1678 1278T1604 1245Q1556 1245 1523 1270T1489 1335Q1489 1349 1502 1385Q1516 1424 1520 1446Q1512 1469 1502 1475T1475 1481Q1376 1481 1302 1378T1165 1055L1124 911H1382L1360 844H1106L1055 645Q959 267 906 90T790 -192T645 -365T510 -457T387 -483Q289 -483 236 -443T182 -319Q182 -278 211 -246T287 -213Q334 -213 365 -240T397 -311Q397 -343 385 -362T354 -408Q357 -429 370 -436T395 -444Q492 -444 559 -351T707 9T884 672L928 850H498L446 650Q341 238 289 68T165 -215T-17 -405T-252 -483Q-352 -483 -405 -442T-459 -319Q-459 -279 -429 -246T-352 -213Q-305 -213 -274 -240T-242 -311Q-242 -343 -254 -362T-285 -408Q-282 -429 -269 -436T-244 -444Q-137 -444 -62 -348T88 -14T271 667L315 844H98L119 911H336L356 979Q408 1145 500 1261T700 1440T946 1503Q1035 1503 1089 1466T1157 1354Q1299 1522 1499 1522Q1561 1522 1609 1499T1682 1435T1708 1348ZM1069 1231Q969 1237 969 1331L972 1375L977 1430Q963 1462 920 1462Q798 1462 705 1356T551 1040L514 911H946L969 993Q1003 1120 1069 1231Z"/><glyph unicode="ﬁ" horiz-adv-x="1186" d="M1165 1343Q1165 1319 1150 1292T1110 1247T1053 1229Q1003 1229 969 1257T934 1329Q934 1343 954 1384Q974 1427 977 1448Q968 1470 953 1475T920 1481Q678 1481 555 1055L514 913H1071Q1066 863 1038 764T971 563L856 262Q809 135 809 102Q809 64 827 47T885 29Q948 29 998 84T1112 299L1149 287Q1097 159 1057 99T968 8T858 -23Q762 -23 703 19T643 137Q643 196 684 307L813 655Q859 779 864 850H496L445 650Q347 260 293 81T167 -212T-16 -405T-252 -483Q-350 -483 -403 -443T-457 -322Q-457 -278 -427 -246T-350 -213Q-303 -213 -271 -240T-238 -313Q-238 -349 -281 -408Q-274 -444 -244 -444Q-137 -444 -62 -348T88 -14T271 667L315 844H98L119 911H336L360 993Q413 1162 499 1275T695 1455T946 1522Q1046 1522 1105 1471T1165 1343Z"/><glyph unicode="ﬂ" horiz-adv-x="1221" d="M1294 1511L893 258Q854 146 854 102Q854 66 871 48T928 29Q1001 29 1054 98T1157 299L1194 287Q1141 157 1100 97T1011 7T901 -23Q804 -23 747 19T690 135Q690 194 727 307L1047 1317Q1011 1326 1000 1348T989 1423V1440Q979 1459 950 1470T897 1481Q794 1481 706 1377T555 1055L514 911H772L750 844H496L445 645Q311 119 258 -23T134 -260T-37 -419T-252 -483Q-350 -483 -403 -443T-457 -322Q-457 -278 -427 -246T-350 -213Q-303 -213 -272 -240T-240 -313Q-240 -339 -251 -360T-281 -408Q-281 -428 -268 -436T-244 -444Q-137 -444 -62 -348T88 -14T271 667L315 844H98L119 911H336L360 993Q413 1170 496 1283T685 1459T924 1522Q976 1522 1020 1505T1090 1464L1294 1511Z"/><glyph unicode="ﬃ" horiz-adv-x="1796" d="M1776 1343Q1776 1319 1761 1292T1721 1247T1663 1229Q1613 1229 1579 1257T1544 1329Q1544 1343 1564 1384Q1584 1427 1587 1448Q1578 1470 1563 1475T1530 1481Q1288 1481 1165 1055L1124 911H1681Q1676 862 1648 762T1581 563L1466 262Q1419 135 1419 102Q1419 64 1437 47T1495 29Q1568 29 1620 98T1722 299L1759 287Q1692 116 1626 47T1468 -23Q1372 -23 1313 19T1253 137Q1253 196 1294 307L1423 655Q1450 728 1459 764T1475 850H1106L1055 650Q957 261 905 88T791 -191T646 -364T508 -458T387 -483Q289 -483 237 -442T184 -322Q184 -279 212 -246T289 -213Q336 -213 368 -240T401 -313Q401 -349 358 -408Q363 -444 395 -444Q492 -444 559 -350T702 -8Q785 263 884 672L928 850H498L446 650Q341 238 289 68T165 -215T-17 -405T-252 -483Q-352 -483 -405 -442T-459 -319Q-459 -279 -429 -246T-352 -213Q-305 -213 -274 -240T-242 -311Q-242 -343 -254 -362T-285 -408Q-282 -429 -269 -436T-244 -444Q-137 -444 -62 -348T88 -14T271 667L315 844H98L119 911H336L356 979Q408 1145 500 1261T700 1440T946 1503Q1044 1503 1099 1458T1159 1331Q1235 1419 1334 1470T1556 1522Q1656 1522 1716 1471T1776 1343ZM1081 1231Q1021 1236 995 1260T969 1333L972 1380L977 1430Q963 1462 920 1462Q798 1462 705 1356T551 1040L514 911H946L971 993Q1009 1126 1081 1231Z"/><glyph unicode="ﬄ" horiz-adv-x="1831" d="M1905 1511L1503 258Q1464 146 1464 102Q1464 66 1481 48T1538 29Q1611 29 1664 98T1767 299L1804 287Q1737 115 1669 46T1511 -23Q1414 -23 1357 19T1300 135Q1300 194 1337 307L1657 1317Q1621 1326 1610 1348T1599 1423V1440Q1589 1459 1560 1470T1507 1481Q1404 1481 1316 1377T1165 1055L1124 911H1382L1360 844H1106L1055 645Q959 267 906 90T790 -192T645 -365T510 -457T387 -483Q289 -483 237 -442T184 -322Q184 -279 212 -246T289 -213Q336 -213 367 -240T399 -313Q399 -339 388 -360T358 -408Q358 -428 371 -436T395 -444Q492 -444 559 -351T707 9T884 672L928 850H498L446 650Q341 238 289 68T165 -215T-17 -405T-252 -483Q-352 -483 -405 -442T-459 -319Q-459 -279 -429 -246T-352 -213Q-305 -213 -274 -240T-242 -311Q-242 -343 -254 -362T-285 -408Q-282 -429 -269 -436T-244 -444Q-137 -444 -62 -348T88 -14T271 667L315 844H98L119 911H336L356 979Q408 1145 500 1261T700 1440T946 1503Q1040 1503 1094 1463T1157 1341Q1235 1419 1290 1454T1407 1505T1534 1522Q1587 1522 1631 1505T1700 1464L1905 1511ZM1073 1231Q969 1237 969 1331Q969 1350 977 1430Q963 1462 920 1462Q798 1462 705 1356T551 1040L514 911H946Q992 1063 1018 1123T1073 1231Z"/></font>
</defs>
</svg>
