<?xml version="1.0" encoding="utf-8"?>
<!-- Generator: Adobe Illustrator 15.1.0, SVG Export Plug-In . SVG Version: 6.00 Build 0)  -->
<!DOCTYPE svg PUBLIC "-//W3C//DTD SVG 1.0//EN" "http://www.w3.org/TR/2001/REC-SVG-20010904/DTD/svg10.dtd" [
	<!ENTITY ns_flows "http://ns.adobe.com/Flows/1.0/">
	<!ENTITY ns_extend "http://ns.adobe.com/Extensibility/1.0/">
	<!ENTITY ns_ai "http://ns.adobe.com/AdobeIllustrator/10.0/">
	<!ENTITY ns_graphs "http://ns.adobe.com/Graphs/1.0/">
]>
<svg version="1.0" id="Layer_2" xmlns:x="&ns_extend;" xmlns:i="&ns_ai;" xmlns:graph="&ns_graphs;"
	 xmlns="http://www.w3.org/2000/svg" xmlns:xlink="http://www.w3.org/1999/xlink" xmlns:a="http://ns.adobe.com/AdobeSVGViewerExtensions/3.0/"
	 x="0px" y="0px" width="1000px" height="240px" viewBox="0 0 1000 240" enable-background="new 0 0 1000 240" xml:space="preserve"
	>
<g>
	<path d="M200.272,20.476h22.785l27.138,45.954c1.408,2.561,6.272,11.649,6.272,11.649h0.256c0,0-0.256-11.009-0.256-14.209V20.476
		h22.145V112h-22.785l-26.881-45.314c-1.536-2.432-6.528-12.289-6.528-12.289h-0.256c0,0,0.256,11.776,0.256,14.977V112h-22.145
		V20.476z"/>
	<path d="M286.927,79.103c0-19.585,13.697-34.562,33.666-34.562c9.344,0,16.769,3.072,22.401,8.192
		c7.808,7.168,11.648,18.561,11.521,31.874h-47.106c1.28,8.832,6.144,14.336,14.72,14.336c5.504,0,9.089-2.432,10.881-6.528h20.353
		c-1.408,5.888-5.249,11.521-11.009,15.489c-5.504,3.84-12.161,6.016-20.481,6.016C300.24,113.92,286.927,98.943,286.927,79.103z
		 M333.393,72.19c-0.768-7.808-5.632-12.8-12.417-12.8c-7.937,0-12.033,4.992-13.44,12.8H333.393z"/>
	<path d="M361.039,89.471v-43.01h20.737v38.658c0,7.168,3.2,11.137,9.856,11.137c7.168,0,11.521-5.376,11.521-13.185v-36.61h20.865
		V112h-19.969v-8.064h-0.384c-4.736,6.4-10.497,9.984-19.585,9.984C368.975,113.92,361.039,104.063,361.039,89.471z"/>
	<path d="M431.054,79.103c0-19.585,13.697-34.562,33.666-34.562c9.344,0,16.769,3.072,22.401,8.192
		c7.808,7.168,11.648,18.561,11.521,31.874h-47.106c1.28,8.832,6.144,14.336,14.72,14.336c5.504,0,9.089-2.432,10.881-6.528h20.353
		c-1.408,5.888-5.249,11.521-11.009,15.489c-5.504,3.84-12.161,6.016-20.481,6.016C444.367,113.92,431.054,98.943,431.054,79.103z
		 M477.52,72.19c-0.768-7.808-5.632-12.8-12.417-12.8c-7.937,0-12.033,4.992-13.44,12.8H477.52z"/>
	<path d="M526.798,20.476h22.657v34.69h32.129v-34.69h22.657V112h-22.657V73.854h-32.129V112h-22.657V20.476z"/>
	<path d="M612.428,93.695c0-14.465,11.521-18.817,25.089-20.609c12.289-1.536,16.642-2.816,16.642-7.296
		c0-4.225-2.688-7.041-8.961-7.041c-6.656,0-9.984,2.944-10.624,8.448h-19.201c0.512-12.161,9.856-22.529,29.697-22.529
		c9.856,0,16.513,1.792,21.249,5.376c5.633,4.096,8.32,10.497,8.32,18.689v33.026c0,5.248,0.512,8.192,2.305,9.344V112h-20.226
		c-1.023-1.408-1.664-3.968-2.176-7.296h-0.256c-3.841,5.504-9.601,8.96-19.457,8.96
		C621.772,113.664,612.428,106.624,612.428,93.695z M654.67,88.575v-7.808c-2.688,1.408-6.528,2.432-10.753,3.456
		c-8.064,1.792-11.393,3.84-11.393,8.833c0,5.248,3.841,7.296,8.961,7.296C649.294,100.352,654.67,95.615,654.67,88.575z"/>
	<path d="M681.674,93.695c0-14.465,11.521-18.817,25.089-20.609c12.289-1.536,16.642-2.816,16.642-7.296
		c0-4.225-2.688-7.041-8.961-7.041c-6.656,0-9.984,2.944-10.624,8.448h-19.201c0.512-12.161,9.856-22.529,29.697-22.529
		c9.856,0,16.513,1.792,21.249,5.376c5.633,4.096,8.32,10.497,8.32,18.689v33.026c0,5.248,0.512,8.192,2.305,9.344V112h-20.226
		c-1.023-1.408-1.664-3.968-2.176-7.296h-0.256c-3.841,5.504-9.601,8.96-19.457,8.96
		C691.019,113.664,681.674,106.624,681.674,93.695z M723.916,88.575v-7.808c-2.688,1.408-6.528,2.432-10.753,3.456
		c-8.064,1.792-11.393,3.84-11.393,8.833c0,5.248,3.841,7.296,8.961,7.296C718.54,100.352,723.916,95.615,723.916,88.575z"/>
	<path d="M750.024,90.751h19.713c0.768,6.528,5.12,9.729,12.032,9.729c6.272,0,10.24-2.304,10.24-6.528
		c0-5.888-7.937-6.528-16.641-8.064c-11.393-1.92-23.553-4.992-23.553-20.353c0-13.825,12.801-20.993,28.289-20.993
		c18.561,0,28.545,8.064,29.569,20.993h-19.201c-0.768-5.888-4.736-7.68-10.496-7.68c-5.12,0-9.089,1.92-9.089,6.016
		c0,4.608,7.425,5.249,15.745,6.785c11.521,1.92,25.089,4.864,25.089,21.633c0,14.336-12.672,21.761-29.825,21.761
		C762.696,114.048,750.664,105.216,750.024,90.751z"/>
	<path d="M208.977,209.248c-7.936-8.705-12.289-20.737-12.289-34.689c0-14.337,4.864-27.009,13.569-35.714
		c7.552-7.68,18.177-12.161,31.361-12.161c23.553,0,37.634,12.544,40.578,31.746h-22.017c-1.664-7.424-7.809-13.057-17.793-13.057
		c-15.104,0-22.657,12.544-22.657,29.186c0,16.769,8.705,29.185,23.042,29.185c11.904,0,18.945-7.937,19.841-16v-0.256h-17.153
		v-16.641h38.146V220h-15.873l-1.28-11.008h-0.256c-6.016,9.344-14.977,13.056-25.985,13.056
		C227.153,222.048,216.529,217.44,208.977,209.248z"/>
	<path d="M293.967,154.461h19.969v10.24h0.384c4.608-7.808,9.984-11.264,17.921-11.264c1.92,0,3.2,0.128,4.096,0.512v17.921h-0.512
		c-12.8-1.792-20.993,4.48-20.993,18.689V220h-20.865V154.461z"/>
	<path d="M338.767,187.358c0-19.713,14.081-34.689,35.074-34.689c21.121,0,34.946,14.977,34.946,34.689
		s-13.825,34.689-34.946,34.689C352.848,222.048,338.767,207.071,338.767,187.358z M387.665,187.358
		c0-11.904-4.864-19.969-13.953-19.969s-13.825,8.064-13.825,19.969c0,11.905,4.736,19.841,13.825,19.841
		S387.665,199.263,387.665,187.358z"/>
	<path d="M419.663,202.719v-35.202h-8.704v-13.057h8.704v-20.737h20.353v20.737h11.905v13.057h-11.905v30.721
		c0,5.121,2.816,6.4,7.296,6.4c1.792,0,3.84-0.128,4.608-0.128v15.233c-1.792,0.512-5.76,1.024-11.393,1.024
		C428.368,220.768,419.663,216.8,419.663,202.719z"/>
	<path d="M455.888,187.103c0-19.585,13.697-34.562,33.666-34.562c9.344,0,16.769,3.072,22.401,8.192
		c7.808,7.168,11.649,18.561,11.52,31.874h-47.105c1.28,8.832,6.144,14.336,14.72,14.336c5.504,0,9.089-2.432,10.881-6.528h20.353
		c-1.408,5.888-5.249,11.521-11.009,15.489c-5.504,3.84-12.161,6.016-20.481,6.016C469.201,221.92,455.888,206.943,455.888,187.103z
		 M502.354,180.19c-0.768-7.808-5.632-12.8-12.417-12.8c-7.937,0-12.033,4.992-13.44,12.8H502.354z"/>
	<path d="M526.543,198.751h19.713c0.769,6.528,5.121,9.729,12.033,9.729c6.272,0,10.24-2.304,10.24-6.528
		c0-5.888-7.936-6.528-16.641-8.064c-11.393-1.92-23.553-4.992-23.553-20.353c0-13.825,12.801-20.993,28.289-20.993
		c18.561,0,28.545,8.064,29.569,20.993h-19.2c-0.769-5.888-4.736-7.68-10.497-7.68c-5.12,0-9.089,1.92-9.089,6.016
		c0,4.608,7.425,5.249,15.745,6.785c11.521,1.92,25.089,4.864,25.089,21.633c0,14.336-12.672,21.761-29.825,21.761
		C539.217,222.048,527.184,213.216,526.543,198.751z"/>
	<path d="M595.023,128.476h20.609v48.13l19.457-22.145h24.064l-23.041,24.577L661.843,220h-24.193l-15.745-26.753l-6.271,6.656V220
		h-20.609V128.476z"/>
</g>
<g>
	<path d="M54.906,74.113C47.126,74.113,40,68.627,40,56.095c0-15.396,11.956-29.155,21.131-36.525l3.603,3.193
		c-6.961,6.799-12.778,15.315-14.578,24.323c1.23-0.572,2.784-0.981,4.912-0.981c8.108,0,13.106,5.813,13.106,14.167
		C68.174,67.724,62.44,74.113,54.906,74.113z"/>
	<path d="M80.621,100.565l-1.883-9.254c10.318-1.801,13.921-4.831,13.921-17.609H77.836V46.514h27.027v25.06
		C104.864,94.504,94.87,98.19,80.621,100.565z"/>
</g>
</svg>
